# Blender 3.5.0
# www.blender.org
mtllib hood6.mtl
o hood
v 0.543099 0.406861 1.151289
v 0.546205 0.361989 1.019397
v 0.546537 0.305400 0.868783
v 0.520564 0.482064 1.464548
v 0.241698 0.552343 1.535029
v 0.530850 0.481642 1.391301
v 0.249385 0.540352 1.469867
v 0.245483 0.544275 1.467840
v 0.274227 0.448716 1.167357
v 0.279972 0.400878 1.038647
v 0.287588 0.348745 0.895978
v 0.265331 0.462125 1.161808
v 0.269767 0.415650 1.031016
v 0.272965 0.363152 0.888537
v 0.541983 0.251985 0.727696
v 0.268880 0.298323 0.739154
v 0.282831 0.309763 0.773761
v 0.269756 0.316343 0.774041
v -0.543138 0.406861 1.151289
v -0.546244 0.361989 1.019397
v -0.546576 0.305400 0.868783
v -0.520603 0.482064 1.464548
v -0.241737 0.552343 1.535029
v -0.530889 0.481642 1.391301
v -0.249424 0.540352 1.469867
v -0.245522 0.544275 1.467840
v -0.274266 0.448716 1.167357
v -0.280011 0.400878 1.038647
v -0.287627 0.348745 0.895978
v -0.265370 0.462125 1.161808
v -0.269806 0.415650 1.031016
v -0.273004 0.363152 0.888537
v -0.000020 0.552343 1.535029
v -0.000020 0.544275 1.467840
v -0.000020 0.462125 1.161808
v -0.000020 0.415650 1.031016
v -0.000020 0.363152 0.888537
v -0.542022 0.251985 0.727696
v -0.268919 0.298323 0.739154
v -0.282870 0.309763 0.773761
v -0.269795 0.316343 0.774041
v -0.000020 0.302604 0.747443
v -0.000020 0.320084 0.779635
vn 0.8496 0.5056 -0.1504
vn 0.7934 0.5806 -0.1829
vn 0.2086 0.9761 -0.0605
vn 0.1251 0.9509 -0.2832
vn 0.7193 0.6934 -0.0427
vn 0.8209 0.5622 -0.1003
vn 0.1196 0.9367 -0.3292
vn 0.1157 0.9324 -0.3425
vn -0.0000 0.9929 -0.1192
vn -0.0000 0.9658 -0.2593
vn -0.0000 0.9383 -0.3457
vn -0.0000 0.9423 -0.3348
vn 0.6246 0.7272 -0.2846
vn 0.0011 0.8839 -0.4678
vn 0.0025 0.9277 -0.3732
vn 0.3988 0.8107 -0.4287
vn 0.1352 0.9334 -0.3323
vn 0.1412 0.9216 -0.3616
vn -0.8496 0.5055 -0.1503
vn -0.7934 0.5806 -0.1829
vn -0.2086 0.9761 -0.0605
vn -0.1251 0.9509 -0.2832
vn -0.7193 0.6934 -0.0427
vn -0.8209 0.5622 -0.1003
vn -0.1196 0.9367 -0.3292
vn -0.1157 0.9324 -0.3425
vn -0.6246 0.7272 -0.2846
vn -0.0011 0.8838 -0.4678
vn -0.0025 0.9277 -0.3733
vn -0.3988 0.8107 -0.4287
vn -0.1352 0.9334 -0.3323
vn -0.1412 0.9216 -0.3616
vn 0.8496 0.5055 -0.1503
vn 0.2086 0.9761 -0.0604
vn 0.0011 0.8838 -0.4678
vn 0.0026 0.9277 -0.3732
vn -0.8496 0.5056 -0.1504
vn -0.2086 0.9761 -0.0604
vn -0.6243 0.7268 -0.2863
vn -0.0011 0.8839 -0.4678
vn -0.0026 0.9277 -0.3732
vt 0.022641 0.364638
vt 0.022234 0.346507
vt 0.022190 0.325495
vt 0.025597 0.405898
vt 0.811691 0.699355
vt 0.062179 0.418250
vt 0.024248 0.397238
vt 0.061171 0.409877
vt 0.810615 0.707958
vt 0.810021 0.708060
vt 0.061683 0.409864
vt 0.810042 0.749367
vt 0.057912 0.368940
vt 0.810873 0.767351
vt 0.057159 0.351013
vt 0.811691 0.787247
vt 0.056160 0.331194
vt 0.808094 0.749536
vt 0.059079 0.369057
vt 0.808664 0.767727
vt 0.058497 0.350963
vt 0.809509 0.787622
vt 0.058078 0.331145
vt 0.022787 0.305788
vt 0.058614 0.309803
vt 0.056784 0.314542
vt 0.810731 0.803806
vt 0.058499 0.314953
vt 0.165136 0.364638
vt 0.165543 0.346507
vt 0.165587 0.325495
vt 0.162180 0.405898
vt 0.478711 0.809858
vt 0.125597 0.418250
vt 0.163529 0.397238
vt 0.477635 0.801254
vt 0.126606 0.409877
vt 0.477041 0.801152
vt 0.126094 0.409864
vt 0.477062 0.759843
vt 0.129865 0.368940
vt 0.477893 0.741859
vt 0.130618 0.351013
vt 0.478711 0.721962
vt 0.131618 0.331194
vt 0.475114 0.759675
vt 0.128698 0.369057
vt 0.475684 0.741483
vt 0.129280 0.350963
vt 0.129699 0.331145
vt 0.476529 0.721588
vt 0.093888 0.418250
vt 0.093888 0.409864
vt 0.093889 0.369057
vt 0.093889 0.350963
vt 0.093889 0.331145
vt 0.164990 0.305788
vt 0.129163 0.309803
vt 0.130994 0.314542
vt 0.477750 0.705404
vt 0.129278 0.314953
vt 0.093889 0.311027
vt 0.093889 0.315828
s 0
usemtl Material.002
f 12/18/1 10/14/1 13/20/1
f 13/20/2 11/16/2 14/22/2
f 4/4/3 7/8/3 5/6/3
f 9/13/4 6/7/4 1/1/4
f 7/9/5 8/10/5 5/5/5
f 8/10/6 9/12/6 12/18/6
f 10/15/7 1/1/7 2/2/7
f 11/17/8 2/2/8 3/3/8
f 5/6/9 34/53/9 33/52/9
f 8/11/10 35/54/10 34/53/10
f 13/21/11 37/56/11 36/55/11
f 12/19/12 36/55/12 35/54/12
f 11/16/13 18/27/13 14/22/13
f 42/62/14 18/28/14 16/25/14
f 18/28/15 37/56/15 14/23/15
f 17/26/16 16/25/16 18/28/16
f 3/3/17 17/26/17 11/17/17
f 16/25/18 17/26/18 15/24/18
f 30/46/19 28/42/19 27/40/19
f 31/48/20 29/44/20 28/42/20
f 25/37/21 22/32/21 23/34/21
f 24/35/22 27/41/22 19/29/22
f 25/36/23 23/33/23 26/38/23
f 26/38/24 27/40/24 25/36/24
f 19/29/25 28/43/25 20/30/25
f 20/30/26 29/45/26 21/31/26
f 23/34/9 34/53/9 26/39/9
f 26/39/10 35/54/10 30/47/10
f 31/49/11 37/56/11 32/50/11
f 30/47/12 36/55/12 31/49/12
f 41/60/27 29/44/27 32/51/27
f 42/62/28 41/61/28 43/63/28
f 37/56/29 41/61/29 32/50/29
f 40/59/30 41/61/30 39/58/30
f 40/59/31 21/31/31 29/45/31
f 39/58/32 38/57/32 40/59/32
f 12/18/33 9/12/33 10/14/33
f 13/20/2 10/14/2 11/16/2
f 4/4/34 6/7/34 7/8/34
f 9/13/4 7/8/4 6/7/4
f 8/10/6 7/9/6 9/12/6
f 10/15/7 9/13/7 1/1/7
f 11/17/8 10/15/8 2/2/8
f 5/6/9 8/11/9 34/53/9
f 8/11/10 12/19/10 35/54/10
f 13/21/11 14/23/11 37/56/11
f 12/19/12 13/21/12 36/55/12
f 11/17/13 17/26/13 18/28/13
f 42/62/35 43/63/35 18/28/35
f 18/28/36 43/63/36 37/56/36
f 3/3/17 15/24/17 17/26/17
f 30/46/37 31/48/37 28/42/37
f 31/48/20 32/51/20 29/44/20
f 25/37/38 24/35/38 22/32/38
f 24/35/22 25/37/22 27/41/22
f 26/38/24 30/46/24 27/40/24
f 19/29/25 27/41/25 28/43/25
f 20/30/26 28/43/26 29/45/26
f 23/34/9 33/52/9 34/53/9
f 26/39/10 34/53/10 35/54/10
f 31/49/11 36/55/11 37/56/11
f 30/47/12 35/54/12 36/55/12
f 41/61/39 40/59/27 29/45/27
f 42/62/40 39/58/40 41/61/40
f 37/56/41 43/63/41 41/61/41
f 40/59/31 38/57/31 21/31/31
