# Blender v3.5.0 OBJ File: 'untitled1.obj.blend'
# www.blender.org
mtllib hood1.mtl
o hood
v 0.543099 0.226420 1.157512
v 0.546205 0.241492 1.019014
v 0.546537 0.253858 0.858596
v 0.520564 0.162188 1.473204
v 0.241698 0.196096 1.566782
v 0.530850 0.192761 1.406641
v 0.249385 0.212767 1.502658
v 0.245483 0.217179 1.502479
v 0.274227 0.257563 1.189764
v 0.279972 0.268602 1.052896
v 0.287588 0.281648 0.901561
v 0.265331 0.272061 1.190402
v 0.269767 0.285215 1.052223
v 0.272965 0.297850 0.900906
v 0.541983 0.265073 0.708154
v 0.268880 0.302227 0.738121
v 0.282831 0.297970 0.774321
v 0.269756 0.303815 0.777355
v -0.543138 0.226420 1.157512
v -0.546244 0.241492 1.019014
v -0.546576 0.253858 0.858596
v -0.520603 0.162188 1.473204
v -0.241737 0.196096 1.566782
v -0.530889 0.192761 1.406641
v -0.249424 0.212767 1.502658
v -0.245522 0.217179 1.502479
v -0.274266 0.257563 1.189764
v -0.280011 0.268602 1.052896
v -0.287627 0.281648 0.901561
v -0.265370 0.272061 1.190402
v -0.269806 0.285215 1.052223
v -0.273004 0.297850 0.900906
v -0.000020 0.196096 1.566782
v -0.000020 0.217179 1.502479
v -0.000020 0.272061 1.190402
v -0.000020 0.285215 1.052223
v -0.000020 0.297850 0.900906
v -0.542022 0.265073 0.708154
v -0.268919 0.302227 0.738121
v -0.282870 0.297970 0.774321
v -0.269795 0.303815 0.777355
v -0.000020 0.302604 0.747443
v -0.000020 0.304841 0.784006
vt 0.808094 0.749536
vt 0.810873 0.767351
vt 0.808664 0.767727
vt 0.811691 0.787247
vt 0.809509 0.787622
vt 0.025597 0.405898
vt 0.061171 0.409877
vt 0.062179 0.418250
vt 0.057912 0.368940
vt 0.024248 0.397238
vt 0.022641 0.364638
vt 0.810615 0.707958
vt 0.810021 0.708060
vt 0.811691 0.699355
vt 0.810042 0.749367
vt 0.057159 0.351013
vt 0.022234 0.346507
vt 0.056160 0.331194
vt 0.022190 0.325495
vt 0.093888 0.409864
vt 0.093888 0.418250
vt 0.061683 0.409864
vt 0.093889 0.369057
vt 0.058497 0.350963
vt 0.093889 0.331145
vt 0.093889 0.350963
vt 0.059079 0.369057
vt 0.810731 0.803806
vt 0.093889 0.311027
vt 0.058499 0.314953
vt 0.058614 0.309803
vt 0.058078 0.331145
vt 0.056784 0.314542
vt 0.022787 0.305788
vt 0.475114 0.759675
vt 0.477893 0.741859
vt 0.477062 0.759843
vt 0.475684 0.741483
vt 0.478711 0.721962
vt 0.126606 0.409877
vt 0.162180 0.405898
vt 0.125597 0.418250
vt 0.163529 0.397238
vt 0.129865 0.368940
vt 0.165136 0.364638
vt 0.477635 0.801254
vt 0.478711 0.809858
vt 0.477041 0.801152
vt 0.130618 0.351013
vt 0.165543 0.346507
vt 0.131618 0.331194
vt 0.165587 0.325495
vt 0.126094 0.409864
vt 0.128698 0.369057
vt 0.129280 0.350963
vt 0.129699 0.331145
vt 0.477750 0.705404
vt 0.476529 0.721588
vt 0.129278 0.314953
vt 0.093889 0.315828
vt 0.130994 0.314542
vt 0.129163 0.309803
vt 0.164990 0.305788
vn 0.8496 0.5218 0.0774
vn 0.7934 0.6035 0.0796
vn 0.2086 0.9102 0.3577
vn 0.1251 0.9815 0.1452
vn 0.7193 0.6464 0.2543
vn 0.8209 0.5520 0.1467
vn 0.1196 0.9880 0.0975
vn 0.1157 0.9898 0.0837
vn 0.0000 0.9502 0.3116
vn 0.0000 0.9849 0.1732
vn 0.0000 0.9965 0.0832
vn 0.0000 0.9955 0.0948
vn 0.6246 0.7794 0.0494
vn 0.0011 0.9987 -0.0504
vn 0.0025 0.9986 0.0538
vn 0.3987 0.9159 -0.0460
vn 0.1352 0.9864 0.0933
vn 0.1412 0.9881 0.0618
vn -0.8496 0.5217 0.0774
vn -0.7934 0.6035 0.0796
vn -0.2086 0.9102 0.3577
vn -0.1251 0.9815 0.1452
vn -0.7193 0.6464 0.2543
vn -0.8209 0.5519 0.1467
vn -0.1196 0.9880 0.0975
vn -0.1157 0.9898 0.0836
vn 0.0000 0.9502 0.3115
vn -0.6246 0.7794 0.0494
vn -0.0011 0.9987 -0.0504
vn -0.0025 0.9986 0.0538
vn -0.3987 0.9159 -0.0460
vn -0.1352 0.9864 0.0933
vn -0.1412 0.9881 0.0618
vn 0.8496 0.5217 0.0774
vn 0.2086 0.9102 0.3578
vn 0.8209 0.5519 0.1467
vn 0.1157 0.9898 0.0836
vn 0.0026 0.9986 0.0538
vn -0.8496 0.5218 0.0774
vn -0.2086 0.9102 0.3578
vn -0.8209 0.5520 0.1467
vn -0.6243 0.7797 0.0477
vn -0.0026 0.9986 0.0538
usemtl Material.002
s off
f 12/1/1 10/2/1 13/3/1
f 13/3/2 11/4/2 14/5/2
f 4/6/3 7/7/3 5/8/3
f 9/9/4 6/10/4 1/11/4
f 7/12/5 8/13/5 5/14/5
f 8/13/6 9/15/6 12/1/6
f 10/16/7 1/11/7 2/17/7
f 11/18/8 2/17/8 3/19/8
f 5/8/9 34/20/9 33/21/9
f 8/22/10 35/23/10 34/20/10
f 13/24/11 37/25/11 36/26/11
f 12/27/12 36/26/12 35/23/12
f 11/4/13 18/28/13 14/5/13
f 42/29/14 18/30/14 16/31/14
f 18/30/15 37/25/15 14/32/15
f 17/33/16 16/31/16 18/30/16
f 3/19/17 17/33/17 11/18/17
f 16/31/18 17/33/18 15/34/18
f 30/35/19 28/36/19 27/37/19
f 31/38/20 29/39/20 28/36/20
f 25/40/21 22/41/21 23/42/21
f 24/43/22 27/44/22 19/45/22
f 25/46/23 23/47/23 26/48/23
f 26/48/24 27/37/24 25/46/24
f 19/45/25 28/49/25 20/50/25
f 20/50/26 29/51/26 21/52/26
f 23/42/27 34/20/27 26/53/27
f 26/53/10 35/23/10 30/54/10
f 31/55/11 37/25/11 32/56/11
f 30/54/12 36/26/12 31/55/12
f 41/57/28 29/39/28 32/58/28
f 42/29/29 41/59/29 43/60/29
f 37/25/30 41/59/30 32/56/30
f 40/61/31 41/59/31 39/62/31
f 40/61/32 21/52/32 29/51/32
f 39/62/33 38/63/33 40/61/33
f 12/1/34 9/15/34 10/2/34
f 13/3/2 10/2/2 11/4/2
f 4/6/35 6/10/35 7/7/35
f 9/9/4 7/7/4 6/10/4
f 8/13/36 7/12/36 9/15/36
f 10/16/7 9/9/7 1/11/7
f 11/18/37 10/16/37 2/17/37
f 5/8/9 8/22/9 34/20/9
f 8/22/10 12/27/10 35/23/10
f 13/24/11 14/32/11 37/25/11
f 12/27/12 13/24/12 36/26/12
f 11/18/13 17/33/13 18/30/13
f 42/29/14 43/60/14 18/30/14
f 18/30/38 43/60/38 37/25/38
f 3/19/17 15/34/17 17/33/17
f 30/35/39 31/38/39 28/36/39
f 31/38/20 32/58/20 29/39/20
f 25/40/40 24/43/40 22/41/40
f 24/43/22 25/40/22 27/44/22
f 26/48/41 30/35/41 27/37/41
f 19/45/25 27/44/25 28/49/25
f 20/50/26 28/49/26 29/51/26
f 23/42/9 33/21/9 34/20/9
f 26/53/10 34/20/10 35/23/10
f 31/55/11 36/26/11 37/25/11
f 30/54/12 35/23/12 36/26/12
f 41/59/42 40/61/28 29/51/28
f 42/29/29 39/62/29 41/59/29
f 37/25/43 43/60/43 41/59/43
f 40/61/32 38/63/32 21/52/32
