# Blender 3.5.0
# www.blender.org
mtllib leftdoor5.mtl
o leftdoor
v 0.612689 0.183223 0.532117
v 0.638244 -0.017242 0.546709
v 0.626498 0.119179 0.544743
v 0.609405 0.188881 0.530488
v 1.003224 -0.151419 -0.241341
v 0.612416 0.283945 0.435331
v 0.640046 0.433705 0.199855
v 0.647350 0.519957 0.056571
v 0.652815 0.538790 0.019535
v 0.724365 0.547608 -0.141101
v 0.802036 0.549331 -0.307665
v 0.954288 0.313262 -0.322042
v 0.963610 0.296046 -0.323911
v 0.791851 0.549331 -0.285823
v 0.943418 0.314138 -0.295900
v 0.653637 0.299665 0.330033
v 0.629602 0.355491 0.318825
v 0.658828 0.284158 0.332453
v 0.640965 -0.026729 0.546335
v 0.646571 -0.144091 0.523503
v 1.029291 -0.019608 -0.302718
v 1.025189 0.119179 -0.310252
v 1.032296 -0.033451 -0.300523
v 0.929000 0.205936 -0.140525
v 0.928161 0.211594 -0.141016
v 0.933689 0.205936 -0.150582
v 0.932850 0.211594 -0.151072
v 0.979147 0.227415 -0.265406
v 0.986867 0.182993 -0.261806
v 0.982764 0.192121 -0.253007
v 0.932408 0.182993 -0.140426
v 0.937194 0.192121 -0.150688
v 0.979595 0.215905 -0.254485
v 0.983152 0.217209 -0.263538
v 0.980363 0.211426 -0.254127
v 0.984419 0.212054 -0.262947
v 1.004229 0.217209 -0.316215
v 1.005496 0.212054 -0.315624
v 0.929401 0.232892 -0.158594
v 0.975040 0.233500 -0.261060
v 0.872458 0.444567 -0.312714
v 0.861781 0.445331 -0.288923
v 0.924702 0.205936 -0.154773
v 0.923861 0.211594 -0.155263
v 0.977998 0.192121 -0.255230
v 0.928206 0.192121 -0.154879
v 0.974828 0.215905 -0.256708
v 0.975596 0.211426 -0.256350
v 0.753291 0.354833 0.377437
v 0.753291 0.306255 0.377437
v 0.733000 0.342550 0.412575
v 0.733000 0.318538 0.412575
v 0.668905 0.354833 0.348412
v 0.668905 0.306255 0.348412
v 0.666958 0.342550 0.389860
v 0.666958 0.318538 0.389860
v 0.757869 0.330544 0.379011
v 0.736881 0.330544 0.413910
v 0.664577 0.330544 0.389041
v 0.658415 0.330544 0.344804
v 0.648372 0.291978 0.349834
v 0.644367 0.291978 0.358422
v 0.645480 0.300465 0.348485
v 0.641475 0.300465 0.357073
v 0.744247 0.354833 0.403735
v 0.744247 0.306255 0.403735
v 0.659860 0.354833 0.374710
v 0.659860 0.306255 0.374710
v 0.649371 0.330544 0.371103
v 0.748823 0.330544 0.405309
vn 0.9067 -0.0254 0.4210
vn 0.8803 0.2476 0.4047
vn 0.8938 0.1842 0.4088
vn 0.8938 0.1841 0.4089
vn 0.8779 0.2348 0.4173
vn 0.8897 0.1947 0.4129
vn 0.8522 0.3968 0.3410
vn 0.8364 0.4527 0.3089
vn 0.8268 0.3908 0.4045
vn 0.7647 0.5332 0.3619
vn 0.9053 0.0666 0.4194
vn 0.0160 -0.9993 -0.0344
vn 0.8791 0.1719 0.4446
vn 0.5245 -0.1887 0.8302
vn -0.3252 -0.0000 0.9456
vn -0.8602 -0.4154 -0.2959
vn -0.0000 1.0000 -0.0000
vn -0.0000 -1.0000 -0.0000
vn -0.8602 0.4154 -0.2959
vn 0.5245 0.1888 0.8302
vn 0.5245 0.1887 0.8302
vn 0.8483 0.3519 0.3956
vn 0.9274 0.1955 0.3190
vn -0.7757 0.2021 0.5979
vn -0.2325 -0.6993 0.6760
vn -0.2325 0.6993 0.6760
vn -0.7757 -0.2021 0.5979
vn 0.9274 -0.1955 0.3190
vn 0.8429 0.4199 0.3364
vn 0.8514 0.3373 0.4017
vn 0.8260 0.4119 0.3848
vn 0.8094 0.4834 0.3334
vn 0.8316 0.3791 0.4058
vn 0.8933 0.1686 0.4166
vn 0.8690 0.2839 0.4052
vn 0.9211 0.1098 0.3736
vn 0.9129 -0.0014 0.4082
vn 0.8643 0.1624 0.4761
vn 0.8869 0.2270 0.4023
vn 0.8962 0.2614 0.3586
vn 0.8566 0.3722 0.3572
vn 0.8614 0.3202 0.3942
vn 0.7837 0.5133 0.3497
vn -0.4226 -0.0000 0.9063
vn 0.4226 -0.0157 -0.9062
vn 0.4199 0.1134 -0.9005
vn 0.7866 0.4905 0.3751
vn 0.7704 0.5227 0.3652
vn 0.8023 0.4622 0.3777
vn 0.3252 -0.0000 -0.9456
vn 0.8803 0.2477 0.4046
vn 0.8779 0.2348 0.4172
vn 0.7647 0.5331 0.3619
vn 0.5245 -0.1887 0.8303
vn -0.8602 -0.4154 -0.2958
vn -0.8602 0.4154 -0.2958
vn 0.5245 0.1887 0.8303
vn 0.9274 0.1954 0.3190
vn -0.2325 -0.6993 0.6759
vn -0.2325 0.6993 0.6759
vn 0.9274 -0.1954 0.3190
vn 0.8514 0.3372 0.4017
vn 0.8317 0.3791 0.4057
vn 0.8643 0.1624 0.4760
vn 0.8869 0.2271 0.4023
vn 0.8567 0.3722 0.3572
vt 0.368994 0.135576
vt 0.395433 0.134801
vt 0.377482 0.134687
vt 0.368231 0.135603
vt 0.414897 0.248425
vt 0.355739 0.147320
vt 0.336155 0.177232
vt 0.324817 0.194904
vt 0.322363 0.199660
vt 0.321573 0.222743
vt 0.321749 0.246852
vt 0.353651 0.256374
vt 0.355965 0.257069
vt 0.321696 0.243691
vt 0.353482 0.252664
vt 0.353882 0.162162
vt 0.346406 0.162306
vt 0.355949 0.162124
vt 0.396693 0.134974
vt 0.412093 0.137752
vt 0.397759 0.257450
vt 0.379544 0.258423
vt 0.399593 0.257323
vt 0.367657 0.233115
vt 0.366910 0.233140
vt 0.367682 0.234571
vt 0.990769 0.812222
vt 0.966086 0.636940
vt 0.366935 0.234595
vt 0.990798 0.811469
vt 0.365092 0.250792
vt 0.370964 0.250689
vt 0.989906 0.895336
vt 0.369747 0.249436
vt 0.967592 0.717213
vt 0.370686 0.233240
vt 0.369514 0.234745
vt 0.967337 0.731900
vt 0.990798 0.814073
vt 0.966262 0.651832
vt 0.366610 0.249490
vt 0.989906 0.892185
vt 0.366456 0.250767
vt 0.367202 0.249480
vt 0.989881 0.892782
vt 0.367140 0.250754
vt 0.366561 0.258200
vt 0.367245 0.258187
vt 0.364118 0.235350
vt 0.364271 0.250063
vt 0.335926 0.251074
vt 0.335771 0.247656
vt 0.873607 0.942405
vt 0.989496 0.811953
vt 0.989525 0.811201
vt 0.967387 0.636940
vt 0.872859 0.942416
vt 0.875443 0.957299
vt 0.990588 0.895235
vt 0.968282 0.717213
vt 0.968638 0.731900
vt 0.875436 0.942611
vt 0.989525 0.813805
vt 0.872305 0.957299
vt 0.966952 0.651832
vt 0.990588 0.892085
vt 0.872898 0.957299
vt 0.990564 0.892682
vt 0.761713 0.182517
vt 0.602592 0.176392
vt 0.880686 0.537261
vt 0.964942 0.608658
vt 0.602621 0.182758
vt 0.887056 0.537280
vt 0.766973 0.181496
vt 0.937101 0.939286
vt 0.607899 0.177954
vt 0.607913 0.181100
vt 0.940248 0.939300
vt 0.761713 0.170811
vt 0.872385 0.639762
vt 0.880686 0.548903
vt 0.872385 0.646127
vt 0.964942 0.620365
vt 0.887056 0.548922
vt 0.937101 0.930175
vt 0.766973 0.172334
vt 0.940248 0.930189
vt 0.602544 0.179604
vt 0.883871 0.536639
vt 0.938674 0.939828
vt 0.607853 0.179552
vt 0.938674 0.929853
vt 0.883871 0.550360
vt 0.872224 0.643012
vt 0.954206 0.413019
vt 0.954206 0.411776
vt 0.953074 0.413022
vt 0.953074 0.411779
vt 0.606223 0.176392
vt 0.765360 0.182517
vt 0.968590 0.608658
vt 0.941926 0.940155
vt 0.606252 0.182758
vt 0.868759 0.639743
vt 0.935559 0.928484
vt 0.765360 0.170811
vt 0.868759 0.646109
vt 0.968590 0.620365
vt 0.941926 0.928513
vt 0.868598 0.642993
vt 0.938743 0.927051
vt 0.606175 0.179604
s 0
usemtl Material.010
f 5/5/1 19/19/1 20/20/1
f 19/19/2 21/21/2 2/2/2
f 29/32/3 38/48/4 36/46/4
f 31/36/5 1/1/5 3/3/5
f 22/22/6 31/36/6 3/3/6
f 34/43/7 37/47/7 28/31/7
f 13/13/8 28/31/8 37/47/8
f 18/18/9 6/6/9 4/4/9
f 13/13/10 39/49/10 40/50/10
f 3/3/11 21/21/11 22/22/11
f 27/28/12 47/65/12 33/40/12
f 48/67/13 47/64/13 44/57/13
f 70/113/14 52/78/14 66/104/14
f 59/93/15 52/79/15 58/91/15
f 69/111/16 54/83/16 68/108/16
f 49/69/17 67/107/17 65/101/17
f 68/109/18 50/72/18 66/102/18
f 53/81/19 69/111/19 67/105/19
f 51/76/15 59/93/15 58/91/15
f 51/77/20 70/113/20 65/100/21
f 62/97/22 63/98/22 64/99/22
f 49/70/23 70/113/23 57/89/23
f 55/86/24 69/112/24 59/93/24
f 56/88/25 66/103/25 52/79/25
f 65/101/26 55/87/26 51/75/26
f 69/112/27 56/88/27 59/93/27
f 70/113/28 50/73/28 57/89/28
f 15/15/29 13/13/29 12/12/29
f 18/18/30 15/15/30 16/16/30
f 16/16/31 6/6/31 18/18/31
f 41/51/32 15/15/32 12/12/32
f 4/4/33 24/24/33 25/25/33
f 25/25/34 26/26/34 27/29/34
f 25/25/35 27/29/35 39/49/35
f 36/46/36 30/34/36 29/32/36
f 29/32/37 32/37/37 31/36/37
f 24/24/38 32/37/38 26/26/38
f 33/41/39 36/46/39 34/43/39
f 34/43/40 38/48/40 37/47/40
f 28/31/41 33/41/41 34/43/41
f 39/49/42 33/41/42 40/50/42
f 11/11/43 42/52/43 41/51/43
f 35/45/44 45/59/44 30/33/44
f 33/42/44 48/68/44 35/45/44
f 32/38/17 45/60/17 46/61/17
f 27/30/45 43/54/45 44/55/45
f 26/27/46 46/63/46 43/54/46
f 8/8/47 10/10/47 9/9/47
f 42/52/48 8/8/48 7/7/48
f 15/15/49 42/52/49 7/7/49
f 57/90/50 54/85/50 60/94/50
f 53/82/50 57/90/50 60/94/50
f 5/5/1 23/23/1 19/19/1
f 19/19/51 23/23/51 21/21/51
f 29/32/4 22/22/4 38/48/4
f 31/36/5 24/24/5 1/1/52
f 22/22/6 29/32/6 31/36/6
f 13/13/8 40/50/8 28/31/8
f 4/4/9 25/25/9 18/18/9
f 25/25/9 39/49/9 18/18/9
f 13/13/53 18/18/53 39/49/53
f 3/3/11 2/2/11 21/21/11
f 27/28/12 44/56/12 47/65/12
f 44/57/13 43/53/13 48/67/13
f 43/53/13 46/62/13 48/67/13
f 46/62/13 45/58/13 48/67/13
f 70/113/54 58/92/54 52/78/54
f 59/93/15 56/88/15 52/79/15
f 69/111/55 60/95/55 54/83/55
f 49/69/17 53/80/17 67/107/17
f 68/109/18 54/84/18 50/72/18
f 53/81/56 60/95/56 69/111/56
f 51/76/15 55/86/15 59/93/15
f 51/77/57 58/92/57 70/113/57
f 62/97/22 61/96/22 63/98/22
f 49/70/58 65/100/58 70/113/58
f 55/86/24 67/106/24 69/112/24
f 56/88/59 68/110/59 66/103/59
f 65/101/60 67/107/60 55/87/60
f 69/112/27 68/110/27 56/88/27
f 70/113/61 66/104/61 50/73/61
f 18/18/62 13/13/62 15/15/62
f 16/16/31 17/17/31 6/6/31
f 41/51/32 42/52/32 15/15/32
f 4/4/33 1/1/33 24/24/63
f 25/25/34 24/24/34 26/26/34
f 36/46/36 35/44/36 30/34/36
f 29/32/37 30/34/37 32/37/37
f 24/24/64 31/36/64 32/37/64
f 33/41/65 35/44/65 36/46/65
f 34/43/40 36/46/40 38/48/40
f 28/31/66 40/50/66 33/41/66
f 39/49/42 27/29/42 33/41/42
f 11/11/43 14/14/43 42/52/43
f 35/45/44 48/68/44 45/59/44
f 33/42/44 47/66/44 48/68/44
f 32/38/17 30/35/17 45/60/17
f 27/30/45 26/27/45 43/54/45
f 26/27/46 32/39/46 46/63/46
f 8/8/47 14/14/47 10/10/47
f 42/52/48 14/14/48 8/8/48
f 17/17/49 16/16/49 7/7/49
f 16/16/49 15/15/49 7/7/49
f 57/90/50 50/74/50 54/85/50
f 53/82/50 49/71/50 57/90/50
