# Blender 3.5.0
# www.blender.org
mtllib leftdoor3.mtl
o leftdoor
v 0.610706 0.183223 0.534707
v 0.638407 -0.017242 0.544640
v 0.626498 0.119179 0.544743
v 0.607189 0.188881 0.533672
v 0.860998 -0.151419 -0.294816
v 0.593631 0.283945 0.439438
v 0.579951 0.433705 0.202742
v 0.562263 0.519957 0.060366
v 0.561214 0.538790 0.022944
v 0.603783 0.547608 -0.147676
v 0.651350 0.549331 -0.325196
v 0.798793 0.313262 -0.365793
v 0.807648 0.296046 -0.369254
v 0.645112 0.549331 -0.301919
v 0.792627 0.314138 -0.338162
v 0.615941 0.299665 0.328582
v 0.590324 0.355491 0.321718
v 0.621473 0.284158 0.330064
v 0.641021 -0.026729 0.543799
v 0.642578 -0.144091 0.520340
v 0.876012 -0.019608 -0.359787
v 0.870663 0.119179 -0.366495
v 0.879352 -0.033451 -0.358148
v 0.805409 0.205936 -0.182644
v 0.804497 0.211594 -0.182981
v 0.808281 0.205936 -0.193361
v 0.807369 0.211594 -0.193698
v 0.833109 0.227415 -0.314335
v 0.841336 0.182993 -0.312130
v 0.838824 0.192121 -0.302753
v 0.808782 0.182993 -0.183137
v 0.811713 0.192121 -0.194074
v 0.835446 0.215905 -0.303658
v 0.837377 0.217209 -0.313191
v 0.836265 0.211426 -0.303438
v 0.838728 0.212054 -0.312829
v 0.848987 0.217209 -0.368727
v 0.850337 0.212054 -0.368366
v 0.802666 0.232892 -0.200507
v 0.829818 0.233500 -0.309342
v 0.719826 0.444567 -0.342398
v 0.713442 0.445331 -0.317114
v 0.798702 0.205936 -0.195928
v 0.797789 0.211594 -0.196265
v 0.833744 0.192121 -0.304114
v 0.802134 0.192121 -0.196641
v 0.830365 0.215905 -0.305019
v 0.831184 0.211426 -0.304800
v 0.722313 0.354833 0.357961
v 0.722313 0.306255 0.357961
v 0.708431 0.342550 0.396089
v 0.708431 0.318538 0.396089
v 0.634168 0.354833 0.344031
v 0.634168 0.306255 0.344031
v 0.639448 0.342550 0.385187
v 0.639448 0.318538 0.385187
v 0.727094 0.330544 0.358716
v 0.712485 0.330544 0.396730
v 0.636961 0.330544 0.384794
v 0.623211 0.330544 0.342299
v 0.614194 0.291978 0.348996
v 0.611741 0.291978 0.358150
v 0.611111 0.300465 0.348171
v 0.608659 0.300465 0.357324
v 0.717972 0.354833 0.385431
v 0.717972 0.306255 0.385431
v 0.629827 0.354833 0.371500
v 0.629827 0.306255 0.371500
v 0.618871 0.330544 0.369769
v 0.722752 0.330544 0.386186
vn 0.9660 -0.0254 0.2572
vn 0.9372 0.2476 0.2456
vn 0.9512 0.1842 0.2474
vn 0.9513 0.1841 0.2474
vn 0.9370 0.2348 0.2585
vn 0.9479 0.1947 0.2521
vn 0.8985 0.3968 0.1878
vn 0.8774 0.4527 0.1590
vn 0.8845 0.3908 0.2548
vn 0.8159 0.5332 0.2236
vn 0.9644 0.0666 0.2558
vn 0.0098 -0.9993 -0.0367
vn 0.9429 0.1719 0.2852
vn 0.6607 -0.1887 0.7266
vn -0.1561 -0.0000 0.9877
vn -0.8985 -0.4154 -0.1420
vn -0.0000 1.0000 -0.0000
vn -0.0000 -1.0000 -0.0000
vn -0.8985 0.4154 -0.1420
vn 0.6607 0.1888 0.7266
vn 0.6607 0.1887 0.7266
vn 0.9041 0.3519 0.2423
vn 0.9687 0.1955 0.1531
vn -0.6601 0.2021 0.7235
vn -0.1116 -0.6993 0.7061
vn -0.1116 0.6993 0.7061
vn -0.6601 -0.2021 0.7235
vn 0.9687 -0.1955 0.1531
vn 0.8885 0.4199 0.1850
vn 0.9082 0.3373 0.2477
vn 0.8803 0.4119 0.2356
vn 0.8550 0.4834 0.1878
vn 0.8895 0.3791 0.2552
vn 0.9521 0.1686 0.2551
vn 0.9262 0.2839 0.2482
vn 0.9720 0.1098 0.2080
vn 0.9699 -0.0014 0.2435
vn 0.9338 0.1624 0.3187
vn 0.9433 0.2270 0.2422
vn 0.9448 0.2614 0.1975
vn 0.9057 0.3722 0.2030
vn 0.9168 0.3202 0.2386
vn 0.8326 0.5133 0.2083
vn -0.2588 -0.0000 0.9659
vn 0.2588 -0.0157 -0.9658
vn 0.2571 0.1134 -0.9597
vn 0.8398 0.4905 0.2328
vn 0.8221 0.5227 0.2259
vn 0.8557 0.4622 0.2326
vn 0.1561 -0.0000 -0.9877
vn 0.9372 0.2477 0.2456
vn 0.9371 0.2348 0.2584
vn 0.8160 0.5331 0.2236
vn 0.9687 0.1954 0.1531
vn -0.1116 -0.6993 0.7060
vn -0.1116 0.6993 0.7060
vn 0.9687 -0.1954 0.1531
vn 0.9082 0.3372 0.2477
vn 0.8895 0.3791 0.2551
vn 0.9720 0.1098 0.2079
vn 0.9339 0.1624 0.3187
vn 0.9433 0.2271 0.2422
vt 0.368994 0.135576
vt 0.395433 0.134801
vt 0.377482 0.134687
vt 0.368231 0.135603
vt 0.414897 0.248425
vt 0.355739 0.147320
vt 0.336155 0.177232
vt 0.324817 0.194904
vt 0.322363 0.199660
vt 0.321573 0.222743
vt 0.321749 0.246852
vt 0.353651 0.256374
vt 0.355965 0.257069
vt 0.321696 0.243691
vt 0.353482 0.252664
vt 0.353882 0.162162
vt 0.346406 0.162306
vt 0.355949 0.162124
vt 0.396693 0.134974
vt 0.412093 0.137752
vt 0.397759 0.257450
vt 0.379544 0.258423
vt 0.399593 0.257323
vt 0.367657 0.233115
vt 0.366910 0.233140
vt 0.367682 0.234571
vt 0.990769 0.812222
vt 0.966086 0.636940
vt 0.366935 0.234595
vt 0.990798 0.811469
vt 0.365092 0.250792
vt 0.370964 0.250689
vt 0.989906 0.895336
vt 0.369747 0.249436
vt 0.967592 0.717213
vt 0.370686 0.233240
vt 0.369514 0.234745
vt 0.967337 0.731900
vt 0.990798 0.814073
vt 0.966262 0.651832
vt 0.366610 0.249490
vt 0.989906 0.892185
vt 0.366456 0.250767
vt 0.367202 0.249480
vt 0.989881 0.892782
vt 0.367140 0.250754
vt 0.366561 0.258200
vt 0.367245 0.258187
vt 0.364118 0.235350
vt 0.364271 0.250063
vt 0.335926 0.251074
vt 0.335771 0.247656
vt 0.873607 0.942405
vt 0.989496 0.811953
vt 0.989525 0.811201
vt 0.967387 0.636940
vt 0.872859 0.942416
vt 0.875443 0.957299
vt 0.990588 0.895235
vt 0.968282 0.717213
vt 0.968638 0.731900
vt 0.875436 0.942611
vt 0.989525 0.813805
vt 0.872305 0.957299
vt 0.966952 0.651832
vt 0.990588 0.892085
vt 0.872898 0.957299
vt 0.990564 0.892682
vt 0.761713 0.182517
vt 0.602592 0.176392
vt 0.880686 0.537261
vt 0.964942 0.608658
vt 0.602621 0.182758
vt 0.887056 0.537280
vt 0.766973 0.181496
vt 0.937101 0.939286
vt 0.607899 0.177954
vt 0.607913 0.181100
vt 0.940248 0.939300
vt 0.761713 0.170811
vt 0.872385 0.639762
vt 0.880686 0.548903
vt 0.872385 0.646127
vt 0.964942 0.620365
vt 0.887056 0.548922
vt 0.937101 0.930175
vt 0.766973 0.172334
vt 0.940248 0.930189
vt 0.602544 0.179604
vt 0.883871 0.536639
vt 0.938674 0.939828
vt 0.607853 0.179552
vt 0.938674 0.929853
vt 0.883871 0.550360
vt 0.872224 0.643012
vt 0.954206 0.413019
vt 0.954206 0.411776
vt 0.953074 0.413022
vt 0.953074 0.411779
vt 0.606223 0.176392
vt 0.765360 0.182517
vt 0.968590 0.608658
vt 0.941926 0.940155
vt 0.606252 0.182758
vt 0.868759 0.639743
vt 0.935559 0.928484
vt 0.765360 0.170811
vt 0.868759 0.646109
vt 0.968590 0.620365
vt 0.941926 0.928513
vt 0.868598 0.642993
vt 0.938743 0.927051
vt 0.606175 0.179604
s 0
usemtl Material.010
f 5/5/1 19/19/1 20/20/1
f 19/19/2 21/21/2 2/2/2
f 29/32/3 38/48/4 36/46/4
f 31/36/5 1/1/5 3/3/5
f 22/22/6 31/36/6 3/3/6
f 34/43/7 37/47/7 28/31/7
f 13/13/8 28/31/8 37/47/8
f 18/18/9 6/6/9 4/4/9
f 13/13/10 39/49/10 40/50/10
f 3/3/11 21/21/11 22/22/11
f 27/28/12 47/65/12 33/40/12
f 48/67/13 47/64/13 44/57/13
f 70/113/14 52/78/14 66/104/14
f 59/93/15 52/79/15 58/91/15
f 69/111/16 54/83/16 68/108/16
f 49/69/17 67/107/17 65/101/17
f 68/109/18 50/72/18 66/102/18
f 53/81/19 69/111/19 67/105/19
f 51/76/15 59/93/15 58/91/15
f 51/77/20 70/113/20 65/100/21
f 62/97/22 63/98/22 64/99/22
f 49/70/23 70/113/23 57/89/23
f 55/86/24 69/112/24 59/93/24
f 56/88/25 66/103/25 52/79/25
f 65/101/26 55/87/26 51/75/26
f 69/112/27 56/88/27 59/93/27
f 70/113/28 50/73/28 57/89/28
f 15/15/29 13/13/29 12/12/29
f 18/18/30 15/15/30 16/16/30
f 16/16/31 6/6/31 18/18/31
f 41/51/32 15/15/32 12/12/32
f 4/4/33 24/24/33 25/25/33
f 25/25/34 26/26/34 27/29/34
f 25/25/35 27/29/35 39/49/35
f 36/46/36 30/34/36 29/32/36
f 29/32/37 32/37/37 31/36/37
f 24/24/38 32/37/38 26/26/38
f 33/41/39 36/46/39 34/43/39
f 34/43/40 38/48/40 37/47/40
f 28/31/41 33/41/41 34/43/41
f 39/49/42 33/41/42 40/50/42
f 11/11/43 42/52/43 41/51/43
f 35/45/44 45/59/44 30/33/44
f 33/42/44 48/68/44 35/45/44
f 32/38/17 45/60/17 46/61/17
f 27/30/45 43/54/45 44/55/45
f 26/27/46 46/63/46 43/54/46
f 8/8/47 10/10/47 9/9/47
f 42/52/48 8/8/48 7/7/48
f 15/15/49 42/52/49 7/7/49
f 57/90/50 54/85/50 60/94/50
f 53/82/50 57/90/50 60/94/50
f 5/5/1 23/23/1 19/19/1
f 19/19/51 23/23/51 21/21/51
f 29/32/4 22/22/4 38/48/4
f 31/36/5 24/24/5 1/1/52
f 22/22/6 29/32/6 31/36/6
f 13/13/8 40/50/8 28/31/8
f 4/4/9 25/25/9 18/18/9
f 25/25/9 39/49/9 18/18/9
f 13/13/53 18/18/53 39/49/53
f 3/3/11 2/2/11 21/21/11
f 27/28/12 44/56/12 47/65/12
f 44/57/13 43/53/13 48/67/13
f 43/53/13 46/62/13 48/67/13
f 46/62/13 45/58/13 48/67/13
f 70/113/14 58/92/14 52/78/14
f 59/93/15 56/88/15 52/79/15
f 69/111/16 60/95/16 54/83/16
f 49/69/17 53/80/17 67/107/17
f 68/109/18 54/84/18 50/72/18
f 53/81/19 60/95/19 69/111/19
f 51/76/15 55/86/15 59/93/15
f 51/77/21 58/92/21 70/113/21
f 62/97/22 61/96/22 63/98/22
f 49/70/54 65/100/54 70/113/54
f 55/86/24 67/106/24 69/112/24
f 56/88/55 68/110/55 66/103/55
f 65/101/56 67/107/56 55/87/56
f 69/112/27 68/110/27 56/88/27
f 70/113/57 66/104/57 50/73/57
f 18/18/58 13/13/58 15/15/58
f 16/16/31 17/17/31 6/6/31
f 41/51/32 42/52/32 15/15/32
f 4/4/33 1/1/33 24/24/59
f 25/25/34 24/24/34 26/26/34
f 36/46/60 35/44/60 30/34/60
f 29/32/37 30/34/37 32/37/37
f 24/24/61 31/36/61 32/37/61
f 33/41/62 35/44/62 36/46/62
f 34/43/40 36/46/40 38/48/40
f 28/31/41 40/50/41 33/41/41
f 39/49/42 27/29/42 33/41/42
f 11/11/43 14/14/43 42/52/43
f 35/45/44 48/68/44 45/59/44
f 33/42/44 47/66/44 48/68/44
f 32/38/17 30/35/17 45/60/17
f 27/30/45 26/27/45 43/54/45
f 26/27/46 32/39/46 46/63/46
f 8/8/47 14/14/47 10/10/47
f 42/52/48 14/14/48 8/8/48
f 17/17/49 16/16/49 7/7/49
f 16/16/49 15/15/49 7/7/49
f 57/90/50 50/74/50 54/85/50
f 53/82/50 49/71/50 57/90/50
