# Blender 3.5.0
# www.blender.org
mtllib leftdoor4.mtl
o leftdoor
v 0.611641 0.183223 0.533369
v 0.638370 -0.017242 0.545678
v 0.626498 0.119179 0.544743
v 0.608228 0.188881 0.532032
v 0.933278 -0.151419 -0.271183
v 0.602934 0.283945 0.436974
v 0.609936 0.433705 0.199987
v 0.604724 0.519957 0.056611
v 0.606940 0.538790 0.019240
v 0.664218 0.547608 -0.147021
v 0.727075 0.549331 -0.319720
v 0.877496 0.313262 -0.347312
v 0.886619 0.296046 -0.349987
v 0.718833 0.549331 -0.297074
v 0.868945 0.314138 -0.320323
v 0.634821 0.299665 0.328485
v 0.609900 0.355491 0.319414
v 0.640202 0.284158 0.330443
v 0.641048 -0.026729 0.545068
v 0.644643 -0.144091 0.521835
v 0.953897 -0.019608 -0.334599
v 0.949154 0.119179 -0.341747
v 0.957082 -0.033451 -0.332674
v 0.868124 0.205936 -0.164283
v 0.867245 0.211594 -0.164698
v 0.871919 0.205936 -0.174709
v 0.871040 0.211594 -0.175124
v 0.907196 0.227415 -0.293058
v 0.915200 0.182993 -0.290145
v 0.911880 0.192121 -0.281022
v 0.871528 0.182993 -0.164480
v 0.875400 0.192121 -0.175120
v 0.908594 0.215905 -0.282218
v 0.911349 0.217209 -0.291547
v 0.909391 0.211426 -0.281928
v 0.912662 0.212054 -0.291069
v 0.927754 0.217209 -0.345860
v 0.929068 0.212054 -0.345382
v 0.866948 0.232892 -0.182317
v 0.903483 0.233500 -0.288372
v 0.796790 0.444567 -0.330888
v 0.788227 0.445331 -0.306257
v 0.862600 0.205936 -0.178101
v 0.861720 0.211594 -0.178516
v 0.906938 0.192121 -0.282821
v 0.866081 0.192121 -0.178512
v 0.903651 0.215905 -0.284017
v 0.904448 0.211426 -0.283727
v 0.738227 0.354833 0.367023
v 0.738227 0.306255 0.367023
v 0.721076 0.342550 0.403795
v 0.721076 0.318538 0.403795
v 0.651632 0.354833 0.345463
v 0.651632 0.306255 0.345463
v 0.653305 0.342550 0.386923
v 0.653305 0.318538 0.386923
v 0.742924 0.330544 0.368192
v 0.725058 0.330544 0.404787
v 0.650862 0.330544 0.386315
v 0.640868 0.330544 0.342783
v 0.631301 0.291978 0.348669
v 0.628060 0.291978 0.357574
v 0.628302 0.300465 0.347578
v 0.625061 0.300465 0.356482
v 0.731509 0.354833 0.394009
v 0.731509 0.306255 0.394009
v 0.644913 0.354833 0.372450
v 0.644913 0.306255 0.372450
v 0.634150 0.330544 0.369770
v 0.736205 0.330544 0.395178
vn 0.9399 -0.0254 0.3404
vn 0.9122 0.2476 0.3264
vn 0.9261 0.1842 0.3294
vn 0.9261 0.1841 0.3294
vn 0.9109 0.2348 0.3392
vn 0.9223 0.1947 0.3338
vn 0.8787 0.3968 0.2654
vn 0.8602 0.4527 0.2349
vn 0.8589 0.3908 0.3309
vn 0.7933 0.5332 0.2938
vn 0.9385 0.0666 0.3389
vn 0.0130 -0.9993 -0.0357
vn 0.9145 0.1719 0.3663
vn 0.5948 -0.1887 0.7814
vn 0.5949 -0.1887 0.7814
vn -0.2416 -0.0000 0.9704
vn -0.8827 -0.4154 -0.2198
vn -0.0000 1.0000 -0.0000
vn -0.0000 -1.0000 -0.0000
vn -0.8827 0.4154 -0.2198
vn 0.5948 0.1888 0.7814
vn 0.5948 0.1887 0.7814
vn 0.8796 0.3519 0.3201
vn 0.9517 0.1955 0.2369
vn -0.7206 0.2021 0.6632
vn -0.1727 -0.6993 0.6936
vn -0.1727 0.6993 0.6936
vn -0.7206 -0.2021 0.6632
vn 0.9517 -0.1955 0.2369
vn 0.8690 0.4199 0.2617
vn 0.8832 0.3373 0.3259
vn 0.8564 0.4119 0.3114
vn 0.8354 0.4834 0.2616
vn 0.8638 0.3791 0.3318
vn 0.8638 0.3791 0.3317
vn 0.9262 0.1686 0.3371
vn 0.9010 0.2839 0.3280
vn 0.9501 0.1098 0.2919
vn 0.9450 -0.0014 0.3271
vn 0.9025 0.1624 0.3989
vn 0.9186 0.2270 0.3235
vn 0.9240 0.2614 0.2791
vn 0.8845 0.3722 0.2812
vn 0.8925 0.3202 0.3176
vn 0.8112 0.5133 0.2800
vn -0.3420 -0.0000 0.9397
vn 0.3420 -0.0157 -0.9396
vn 0.3398 0.1134 -0.9336
vn 0.8163 0.4905 0.3051
vn 0.7992 0.5227 0.2967
vn 0.8322 0.4622 0.3063
vn 0.2416 -0.0000 -0.9704
vn 0.9122 0.2477 0.3264
vn 0.9110 0.2348 0.3391
vn 0.8602 0.4527 0.2348
vn 0.7934 0.5331 0.2939
vn -0.8827 -0.4154 -0.2197
vn -0.8827 0.4154 -0.2197
vn 0.9517 0.1954 0.2369
vn 0.9517 -0.1954 0.2369
vn 0.8832 0.3372 0.3259
vn 0.8639 0.3791 0.3317
vn 0.9025 0.1624 0.3988
vn 0.9186 0.2271 0.3235
vn 0.8112 0.5133 0.2801
vt 0.368994 0.135576
vt 0.395433 0.134801
vt 0.377482 0.134687
vt 0.368231 0.135603
vt 0.414897 0.248425
vt 0.355739 0.147320
vt 0.336155 0.177232
vt 0.324817 0.194904
vt 0.322363 0.199660
vt 0.321573 0.222743
vt 0.321749 0.246852
vt 0.353651 0.256374
vt 0.355965 0.257069
vt 0.321696 0.243691
vt 0.353482 0.252664
vt 0.353882 0.162162
vt 0.346406 0.162306
vt 0.355949 0.162124
vt 0.396693 0.134974
vt 0.412093 0.137752
vt 0.397759 0.257450
vt 0.379544 0.258423
vt 0.399593 0.257323
vt 0.367657 0.233115
vt 0.366910 0.233140
vt 0.367682 0.234571
vt 0.990769 0.812222
vt 0.966086 0.636940
vt 0.366935 0.234595
vt 0.990798 0.811469
vt 0.365092 0.250792
vt 0.370964 0.250689
vt 0.989906 0.895336
vt 0.369747 0.249436
vt 0.967592 0.717213
vt 0.370686 0.233240
vt 0.369514 0.234745
vt 0.967337 0.731900
vt 0.990798 0.814073
vt 0.966262 0.651832
vt 0.366610 0.249490
vt 0.989906 0.892185
vt 0.366456 0.250767
vt 0.367202 0.249480
vt 0.989881 0.892782
vt 0.367140 0.250754
vt 0.366561 0.258200
vt 0.367245 0.258187
vt 0.364118 0.235350
vt 0.364271 0.250063
vt 0.335926 0.251074
vt 0.335771 0.247656
vt 0.873607 0.942405
vt 0.989496 0.811953
vt 0.989525 0.811201
vt 0.967387 0.636940
vt 0.872859 0.942416
vt 0.875443 0.957299
vt 0.990588 0.895235
vt 0.968282 0.717213
vt 0.968638 0.731900
vt 0.875436 0.942611
vt 0.989525 0.813805
vt 0.872305 0.957299
vt 0.966952 0.651832
vt 0.990588 0.892085
vt 0.872898 0.957299
vt 0.990564 0.892682
vt 0.761713 0.182517
vt 0.602592 0.176392
vt 0.880686 0.537261
vt 0.964942 0.608658
vt 0.602621 0.182758
vt 0.887056 0.537280
vt 0.766973 0.181496
vt 0.937101 0.939286
vt 0.607899 0.177954
vt 0.607913 0.181100
vt 0.940248 0.939300
vt 0.761713 0.170811
vt 0.872385 0.639762
vt 0.880686 0.548903
vt 0.872385 0.646127
vt 0.964942 0.620365
vt 0.887056 0.548922
vt 0.937101 0.930175
vt 0.766973 0.172334
vt 0.940248 0.930189
vt 0.602544 0.179604
vt 0.883871 0.536639
vt 0.938674 0.939828
vt 0.607853 0.179552
vt 0.938674 0.929853
vt 0.883871 0.550360
vt 0.872224 0.643012
vt 0.954206 0.413019
vt 0.954206 0.411776
vt 0.953074 0.413022
vt 0.953074 0.411779
vt 0.606223 0.176392
vt 0.765360 0.182517
vt 0.968590 0.608658
vt 0.941926 0.940155
vt 0.606252 0.182758
vt 0.868759 0.639743
vt 0.935559 0.928484
vt 0.765360 0.170811
vt 0.868759 0.646109
vt 0.968590 0.620365
vt 0.941926 0.928513
vt 0.868598 0.642993
vt 0.938743 0.927051
vt 0.606175 0.179604
s 0
usemtl Material.010
f 5/5/1 19/19/1 20/20/1
f 19/19/2 21/21/2 2/2/2
f 29/32/3 38/48/4 36/46/4
f 31/36/5 1/1/5 3/3/5
f 22/22/6 31/36/6 3/3/6
f 34/43/7 37/47/7 28/31/7
f 13/13/8 28/31/8 37/47/8
f 18/18/9 6/6/9 4/4/9
f 13/13/10 39/49/10 40/50/10
f 3/3/11 21/21/11 22/22/11
f 27/28/12 47/65/12 33/40/12
f 48/67/13 47/64/13 44/57/13
f 70/113/14 52/78/14 66/104/15
f 59/93/16 52/79/16 58/91/16
f 69/111/17 54/83/17 68/108/17
f 49/69/18 67/107/18 65/101/18
f 68/109/19 50/72/19 66/102/19
f 53/81/20 69/111/20 67/105/20
f 51/76/16 59/93/16 58/91/16
f 51/77/21 70/113/21 65/100/22
f 62/97/23 63/98/23 64/99/23
f 49/70/24 70/113/24 57/89/24
f 55/86/25 69/112/25 59/93/25
f 56/88/26 66/103/26 52/79/26
f 65/101/27 55/87/27 51/75/27
f 69/112/28 56/88/28 59/93/28
f 70/113/29 50/73/29 57/89/29
f 15/15/30 13/13/30 12/12/30
f 18/18/31 15/15/31 16/16/31
f 16/16/32 6/6/32 18/18/32
f 41/51/33 15/15/33 12/12/33
f 4/4/34 24/24/34 25/25/35
f 25/25/36 26/26/36 27/29/36
f 25/25/37 27/29/37 39/49/37
f 36/46/38 30/34/38 29/32/38
f 29/32/39 32/37/39 31/36/39
f 24/24/40 32/37/40 26/26/40
f 33/41/41 36/46/41 34/43/41
f 34/43/42 38/48/42 37/47/42
f 28/31/43 33/41/43 34/43/43
f 39/49/44 33/41/44 40/50/44
f 11/11/45 42/52/45 41/51/45
f 35/45/46 45/59/46 30/33/46
f 33/42/46 48/68/46 35/45/46
f 32/38/18 45/60/18 46/61/18
f 27/30/47 43/54/47 44/55/47
f 26/27/48 46/63/48 43/54/48
f 8/8/49 10/10/49 9/9/49
f 42/52/50 8/8/50 7/7/50
f 15/15/51 42/52/51 7/7/51
f 57/90/52 54/85/52 60/94/52
f 53/82/52 57/90/52 60/94/52
f 5/5/1 23/23/1 19/19/1
f 19/19/53 23/23/53 21/21/53
f 29/32/4 22/22/4 38/48/4
f 31/36/5 24/24/5 1/1/54
f 22/22/6 29/32/6 31/36/6
f 13/13/55 40/50/55 28/31/55
f 4/4/9 25/25/9 18/18/9
f 25/25/9 39/49/9 18/18/9
f 13/13/56 18/18/56 39/49/56
f 3/3/11 2/2/11 21/21/11
f 27/28/12 44/56/12 47/65/12
f 44/57/13 43/53/13 48/67/13
f 43/53/13 46/62/13 48/67/13
f 46/62/13 45/58/13 48/67/13
f 70/113/14 58/92/14 52/78/14
f 59/93/16 56/88/16 52/79/16
f 69/111/57 60/95/57 54/83/57
f 49/69/18 53/80/18 67/107/18
f 68/109/19 54/84/19 50/72/19
f 53/81/58 60/95/58 69/111/58
f 51/76/16 55/86/16 59/93/16
f 51/77/22 58/92/22 70/113/22
f 62/97/23 61/96/23 63/98/23
f 49/70/59 65/100/59 70/113/59
f 55/86/25 67/106/25 69/112/25
f 56/88/26 68/110/26 66/103/26
f 65/101/27 67/107/27 55/87/27
f 69/112/28 68/110/28 56/88/28
f 70/113/60 66/104/60 50/73/60
f 18/18/61 13/13/61 15/15/61
f 16/16/32 17/17/32 6/6/32
f 41/51/33 42/52/33 15/15/33
f 4/4/34 1/1/35 24/24/62
f 25/25/36 24/24/36 26/26/36
f 36/46/38 35/44/38 30/34/38
f 29/32/39 30/34/39 32/37/39
f 24/24/63 31/36/63 32/37/63
f 33/41/64 35/44/64 36/46/64
f 34/43/42 36/46/42 38/48/42
f 28/31/43 40/50/43 33/41/43
f 39/49/44 27/29/44 33/41/44
f 11/11/65 14/14/65 42/52/45
f 35/45/46 48/68/46 45/59/46
f 33/42/46 47/66/46 48/68/46
f 32/38/18 30/35/18 45/60/18
f 27/30/47 26/27/47 43/54/47
f 26/27/48 32/39/48 46/63/48
f 8/8/49 14/14/49 10/10/49
f 42/52/50 14/14/50 8/8/50
f 17/17/51 16/16/51 7/7/51
f 16/16/51 15/15/51 7/7/51
f 57/90/52 50/74/52 54/85/52
f 53/82/52 49/71/52 57/90/52
