# Blender 3.5.0
# www.blender.org
mtllib leftdoor6.mtl
o leftdoor
v 0.613842 0.183223 0.530962
v 0.638027 -0.017242 0.547725
v 0.626498 0.119179 0.544743
v 0.610713 0.188881 0.529052
v 1.070302 -0.151419 -0.205516
v 0.622006 0.283945 0.434520
v 0.670054 0.433705 0.202349
v 0.689818 0.519957 0.060246
v 0.698490 0.538790 0.023827
v 0.783768 0.547608 -0.129961
v 0.875660 0.549331 -0.289122
v 1.028586 0.313262 -0.290174
v 1.038035 0.296046 -0.291225
v 0.863610 0.549331 -0.268251
v 1.015479 0.314138 -0.265080
v 0.672247 0.299665 0.333215
v 0.649280 0.355491 0.319955
v 0.677207 0.284158 0.336079
v 0.640771 -0.026729 0.547590
v 0.648346 -0.144091 0.525334
v 1.101619 -0.019608 -0.264387
v 1.098189 0.119179 -0.272251
v 1.104422 -0.033451 -0.261939
v 0.987574 0.205936 -0.111553
v 0.986781 0.211594 -0.112115
v 0.993122 0.205936 -0.121162
v 0.992328 0.211594 -0.121723
v 1.048414 0.227415 -0.231587
v 1.055791 0.182993 -0.227328
v 1.050937 0.192121 -0.218921
v 0.990961 0.182993 -0.111157
v 0.996622 0.192121 -0.120963
v 1.047909 0.215905 -0.220670
v 1.052241 0.217209 -0.229378
v 1.048643 0.211426 -0.220246
v 1.053452 0.212054 -0.228679
v 1.077829 0.217209 -0.280017
v 1.079040 0.212054 -0.279318
v 0.989548 0.232892 -0.129518
v 1.043944 0.233500 -0.227617
v 0.946255 0.444567 -0.288014
v 0.933544 0.445331 -0.265245
v 0.984534 0.205936 -0.126121
v 0.983739 0.211594 -0.126682
v 1.046383 0.192121 -0.221551
v 0.988034 0.192121 -0.125921
v 1.043353 0.215905 -0.223300
v 1.044088 0.211426 -0.222876
v 0.767390 0.354833 0.389124
v 0.767390 0.306255 0.389124
v 0.744114 0.342550 0.422360
v 0.744114 0.318538 0.422360
v 0.685855 0.354833 0.352856
v 0.685855 0.306255 0.352856
v 0.680303 0.342550 0.393976
v 0.680303 0.318538 0.393976
v 0.771813 0.330544 0.391091
v 0.747863 0.330544 0.424028
v 0.678003 0.330544 0.392952
v 0.675720 0.330544 0.348347
v 0.665276 0.291978 0.352482
v 0.660538 0.291978 0.360688
v 0.662512 0.300465 0.350886
v 0.657774 0.300465 0.359093
v 0.756088 0.354833 0.414534
v 0.756088 0.306255 0.414534
v 0.674552 0.354833 0.378265
v 0.674552 0.306255 0.378265
v 0.664417 0.330544 0.373757
v 0.760510 0.330544 0.416501
vn 0.8665 -0.0254 0.4985
vn 0.8417 0.2476 0.4798
vn 0.8548 0.1842 0.4852
vn 0.8548 0.1841 0.4852
vn 0.8382 0.2348 0.4922
vn 0.8504 0.1947 0.4889
vn 0.8193 0.3968 0.4140
vn 0.8063 0.4527 0.3807
vn 0.7884 0.3908 0.4751
vn 0.7303 0.5332 0.4271
vn 0.8654 0.0666 0.4967
vn 0.8653 0.0666 0.4967
vn 0.0190 -0.9993 -0.0329
vn 0.8370 0.1719 0.5195
vn 0.4501 -0.1887 0.8728
vn -0.4064 -0.0000 0.9137
vn -0.8311 -0.4154 -0.3697
vn -0.0000 1.0000 -0.0000
vn -0.0000 -1.0000 -0.0000
vn -0.8311 0.4154 -0.3697
vn 0.4501 0.1888 0.8728
vn 0.4501 0.1887 0.8728
vn 0.8106 0.3519 0.4680
vn 0.8961 0.1955 0.3986
vn -0.8248 0.2021 0.5280
vn -0.2905 -0.6993 0.6531
vn -0.2905 0.6993 0.6531
vn -0.8248 -0.2021 0.5280
vn 0.8961 -0.1955 0.3986
vn 0.8104 0.4199 0.4086
vn 0.8132 0.3373 0.4743
vn 0.7893 0.4119 0.4554
vn 0.7773 0.4834 0.4027
vn 0.7931 0.3791 0.4767
vn 0.8536 0.1686 0.4928
vn 0.8304 0.2839 0.4794
vn 0.8850 0.1098 0.4524
vn 0.8738 -0.0014 0.4863
vn 0.8195 0.1624 0.5496
vn 0.8485 0.2270 0.4781
vn 0.8615 0.2614 0.4353
vn 0.8223 0.3722 0.4305
vn 0.8238 0.3202 0.4678
vn 0.7503 0.5133 0.4167
vn -0.5000 -0.0000 0.8660
vn 0.4999 -0.0157 -0.8659
vn 0.4968 0.1134 -0.8604
vn 0.7509 0.4905 0.4422
vn 0.7356 0.5227 0.4309
vn 0.7664 0.4622 0.4462
vn 0.4064 -0.0000 -0.9137
vn 0.8417 0.2477 0.4798
vn 0.8063 0.4527 0.3806
vn 0.7884 0.3908 0.4750
vn 0.7303 0.5331 0.4272
vn 0.8961 0.1954 0.3986
vn 0.8961 -0.1954 0.3986
vn 0.8132 0.3372 0.4743
vn 0.7931 0.3791 0.4766
vn 0.8196 0.1624 0.5495
vn 0.8485 0.2271 0.4781
vt 0.368994 0.135576
vt 0.395433 0.134801
vt 0.377482 0.134687
vt 0.368231 0.135603
vt 0.414897 0.248425
vt 0.355739 0.147320
vt 0.336155 0.177232
vt 0.324817 0.194904
vt 0.322363 0.199660
vt 0.321573 0.222743
vt 0.321749 0.246852
vt 0.353651 0.256374
vt 0.355965 0.257069
vt 0.321696 0.243691
vt 0.353482 0.252664
vt 0.353882 0.162162
vt 0.346406 0.162306
vt 0.355949 0.162124
vt 0.396693 0.134974
vt 0.412093 0.137752
vt 0.397759 0.257450
vt 0.379544 0.258423
vt 0.399593 0.257323
vt 0.367657 0.233115
vt 0.366910 0.233140
vt 0.367682 0.234571
vt 0.990769 0.812222
vt 0.966086 0.636940
vt 0.366935 0.234595
vt 0.990798 0.811469
vt 0.365092 0.250792
vt 0.370964 0.250689
vt 0.989906 0.895336
vt 0.369747 0.249436
vt 0.967592 0.717213
vt 0.370686 0.233240
vt 0.369514 0.234745
vt 0.967337 0.731900
vt 0.990798 0.814073
vt 0.966262 0.651832
vt 0.366610 0.249490
vt 0.989906 0.892185
vt 0.366456 0.250767
vt 0.367202 0.249480
vt 0.989881 0.892782
vt 0.367140 0.250754
vt 0.366561 0.258200
vt 0.367245 0.258187
vt 0.364118 0.235350
vt 0.364271 0.250063
vt 0.335926 0.251074
vt 0.335771 0.247656
vt 0.873607 0.942405
vt 0.989496 0.811953
vt 0.989525 0.811201
vt 0.967387 0.636940
vt 0.872859 0.942416
vt 0.875443 0.957299
vt 0.990588 0.895235
vt 0.968282 0.717213
vt 0.968638 0.731900
vt 0.875436 0.942611
vt 0.989525 0.813805
vt 0.872305 0.957299
vt 0.966952 0.651832
vt 0.990588 0.892085
vt 0.872898 0.957299
vt 0.990564 0.892682
vt 0.761713 0.182517
vt 0.602592 0.176392
vt 0.880686 0.537261
vt 0.964942 0.608658
vt 0.602621 0.182758
vt 0.887056 0.537280
vt 0.766973 0.181496
vt 0.937101 0.939286
vt 0.607899 0.177954
vt 0.607913 0.181100
vt 0.940248 0.939300
vt 0.761713 0.170811
vt 0.872385 0.639762
vt 0.880686 0.548903
vt 0.872385 0.646127
vt 0.964942 0.620365
vt 0.887056 0.548922
vt 0.937101 0.930175
vt 0.766973 0.172334
vt 0.940248 0.930189
vt 0.602544 0.179604
vt 0.883871 0.536639
vt 0.938674 0.939828
vt 0.607853 0.179552
vt 0.938674 0.929853
vt 0.883871 0.550360
vt 0.872224 0.643012
vt 0.954206 0.413019
vt 0.954206 0.411776
vt 0.953074 0.413022
vt 0.953074 0.411779
vt 0.606223 0.176392
vt 0.765360 0.182517
vt 0.968590 0.608658
vt 0.941926 0.940155
vt 0.606252 0.182758
vt 0.868759 0.639743
vt 0.935559 0.928484
vt 0.765360 0.170811
vt 0.868759 0.646109
vt 0.968590 0.620365
vt 0.941926 0.928513
vt 0.868598 0.642993
vt 0.938743 0.927051
vt 0.606175 0.179604
s 0
usemtl Material.010
f 5/5/1 19/19/1 20/20/1
f 19/19/2 21/21/2 2/2/2
f 29/32/3 38/48/4 36/46/4
f 31/36/5 1/1/5 3/3/5
f 22/22/6 31/36/6 3/3/6
f 34/43/7 37/47/7 28/31/7
f 13/13/8 28/31/8 37/47/8
f 18/18/9 6/6/9 4/4/9
f 13/13/10 39/49/10 40/50/10
f 3/3/11 21/21/12 22/22/11
f 27/28/13 47/65/13 33/40/13
f 48/67/14 47/64/14 44/57/14
f 70/113/15 52/78/15 66/104/15
f 59/93/16 52/79/16 58/91/16
f 69/111/17 54/83/17 68/108/17
f 49/69/18 67/107/18 65/101/18
f 68/109/19 50/72/19 66/102/19
f 53/81/20 69/111/20 67/105/20
f 51/76/16 59/93/16 58/91/16
f 51/77/21 70/113/21 65/100/22
f 62/97/23 63/98/23 64/99/23
f 49/70/24 70/113/24 57/89/24
f 55/86/25 69/112/25 59/93/25
f 56/88/26 66/103/26 52/79/26
f 65/101/27 55/87/27 51/75/27
f 69/112/28 56/88/28 59/93/28
f 70/113/29 50/73/29 57/89/29
f 15/15/30 13/13/30 12/12/30
f 18/18/31 15/15/31 16/16/31
f 16/16/32 6/6/32 18/18/32
f 41/51/33 15/15/33 12/12/33
f 4/4/34 24/24/34 25/25/34
f 25/25/35 26/26/35 27/29/35
f 25/25/36 27/29/36 39/49/36
f 36/46/37 30/34/37 29/32/37
f 29/32/38 32/37/38 31/36/38
f 24/24/39 32/37/39 26/26/39
f 33/41/40 36/46/40 34/43/40
f 34/43/41 38/48/41 37/47/41
f 28/31/42 33/41/42 34/43/42
f 39/49/43 33/41/43 40/50/43
f 11/11/44 42/52/44 41/51/44
f 35/45/45 45/59/45 30/33/45
f 33/42/45 48/68/45 35/45/45
f 32/38/18 45/60/18 46/61/18
f 27/30/46 43/54/46 44/55/46
f 26/27/47 46/63/47 43/54/47
f 8/8/48 10/10/48 9/9/48
f 42/52/49 8/8/49 7/7/49
f 15/15/50 42/52/50 7/7/50
f 57/90/51 54/85/51 60/94/51
f 53/82/51 57/90/51 60/94/51
f 5/5/1 23/23/1 19/19/1
f 19/19/52 23/23/52 21/21/52
f 29/32/4 22/22/4 38/48/4
f 31/36/5 24/24/5 1/1/5
f 22/22/6 29/32/6 31/36/6
f 13/13/53 40/50/53 28/31/53
f 4/4/54 25/25/54 18/18/54
f 25/25/9 39/49/9 18/18/9
f 13/13/55 18/18/55 39/49/55
f 3/3/11 2/2/11 21/21/11
f 27/28/13 44/56/13 47/65/13
f 44/57/14 43/53/14 48/67/14
f 43/53/14 46/62/14 48/67/14
f 46/62/14 45/58/14 48/67/14
f 70/113/15 58/92/15 52/78/15
f 59/93/16 56/88/16 52/79/16
f 69/111/17 60/95/17 54/83/17
f 49/69/18 53/80/18 67/107/18
f 68/109/19 54/84/19 50/72/19
f 53/81/20 60/95/20 69/111/20
f 51/76/16 55/86/16 59/93/16
f 51/77/22 58/92/22 70/113/22
f 62/97/23 61/96/23 63/98/23
f 49/70/56 65/100/56 70/113/56
f 55/86/25 67/106/25 69/112/25
f 56/88/26 68/110/26 66/103/26
f 65/101/27 67/107/27 55/87/27
f 69/112/28 68/110/28 56/88/28
f 70/113/57 66/104/57 50/73/57
f 18/18/58 13/13/58 15/15/58
f 16/16/32 17/17/32 6/6/32
f 41/51/33 42/52/33 15/15/33
f 4/4/34 1/1/34 24/24/59
f 25/25/35 24/24/35 26/26/35
f 36/46/37 35/44/37 30/34/37
f 29/32/38 30/34/38 32/37/38
f 24/24/60 31/36/60 32/37/60
f 33/41/61 35/44/61 36/46/61
f 34/43/41 36/46/41 38/48/41
f 28/31/42 40/50/42 33/41/42
f 39/49/43 27/29/43 33/41/43
f 11/11/44 14/14/44 42/52/44
f 35/45/45 48/68/45 45/59/45
f 33/42/45 47/66/45 48/68/45
f 32/38/18 30/35/18 45/60/18
f 27/30/46 26/27/46 43/54/46
f 26/27/47 32/39/47 46/63/47
f 8/8/48 14/14/48 10/10/48
f 42/52/49 14/14/49 8/8/49
f 17/17/50 16/16/50 7/7/50
f 16/16/50 15/15/50 7/7/50
f 57/90/51 50/74/51 54/85/51
f 53/82/51 49/71/51 57/90/51
