# Blender 3.5.0
# www.blender.org
mtllib leftdoor2.mtl
o leftdoor
v 0.609892 0.183223 0.536121
v 0.638352 -0.017242 0.543602
v 0.626498 0.119179 0.544743
v 0.606298 0.188881 0.535397
v 0.786934 -0.151419 -0.312059
v 0.584578 0.283945 0.442703
v 0.550321 0.433705 0.208101
v 0.520291 0.519957 0.067808
v 0.515985 0.538790 0.030620
v 0.543521 0.547608 -0.143061
v 0.575435 0.549331 -0.324052
v 0.718779 0.313262 -0.377345
v 0.727299 0.296046 -0.381564
v 0.571250 0.549331 -0.300319
v 0.715045 0.314138 -0.349281
v 0.597141 0.299665 0.330325
v 0.571024 0.355491 0.325720
v 0.602781 0.284158 0.331319
v 0.640884 -0.026729 0.542537
v 0.640390 -0.144091 0.519032
v 0.796227 -0.019608 -0.378092
v 0.790315 0.119179 -0.384308
v 0.799698 -0.033451 -0.376750
v 0.741332 0.205936 -0.195469
v 0.740394 0.211594 -0.195725
v 0.743259 0.205936 -0.206396
v 0.742321 0.211594 -0.206652
v 0.757449 0.227415 -0.329073
v 0.765838 0.182993 -0.327594
v 0.764152 0.192121 -0.318033
v 0.744650 0.182993 -0.196255
v 0.746616 0.192121 -0.207406
v 0.760708 0.215905 -0.318640
v 0.761801 0.217209 -0.328305
v 0.761543 0.211426 -0.318493
v 0.763178 0.212054 -0.328063
v 0.768526 0.217209 -0.384643
v 0.769903 0.212054 -0.384400
v 0.737043 0.232892 -0.213025
v 0.754606 0.233500 -0.323813
v 0.642151 0.444567 -0.347156
v 0.637995 0.445331 -0.321412
v 0.733492 0.205936 -0.208118
v 0.732554 0.211594 -0.208374
v 0.758973 0.192121 -0.318946
v 0.736850 0.192121 -0.209128
v 0.755528 0.215905 -0.319554
v 0.756363 0.211426 -0.319407
v 0.705669 0.354833 0.350321
v 0.705669 0.306255 0.350321
v 0.695163 0.342550 0.389513
v 0.695163 0.318538 0.389513
v 0.616646 0.354833 0.344126
v 0.616646 0.306255 0.344126
v 0.625493 0.342550 0.384666
v 0.625493 0.318538 0.384666
v 0.710498 0.330544 0.350657
v 0.699257 0.330544 0.389799
v 0.622981 0.330544 0.384491
v 0.605580 0.330544 0.343356
v 0.597180 0.291978 0.350814
v 0.595535 0.291978 0.360146
v 0.594038 0.300465 0.350260
v 0.592392 0.300465 0.359592
v 0.703739 0.354833 0.378065
v 0.703739 0.306255 0.378065
v 0.614715 0.354833 0.371870
v 0.614715 0.306255 0.371870
v 0.603650 0.330544 0.371099
v 0.708567 0.330544 0.378400
vn 0.9848 -0.0254 0.1720
vn 0.9551 0.2476 0.1630
vn 0.9692 0.1842 0.1636
vn 0.9692 0.1841 0.1636
vn 0.9560 0.2348 0.1759
vn 0.9663 0.1947 0.1686
vn 0.9114 0.3968 0.1088
vn 0.8879 0.4527 0.0819
vn 0.9033 0.3908 0.1768
vn 0.8323 0.5332 0.1516
vn 0.9831 0.0666 0.1708
vn 0.0066 -0.9993 -0.0374
vn 0.9642 0.1719 0.2019
vn 0.7215 -0.1887 0.6662
vn -0.0694 -0.0000 0.9976
vn -0.9074 -0.4154 -0.0632
vn -0.0000 1.0000 -0.0000
vn -0.0000 -1.0000 -0.0000
vn -0.9074 0.4154 -0.0632
vn 0.7215 0.1888 0.6662
vn 0.7215 0.1887 0.6662
vn 0.9218 0.3519 0.1625
vn 0.9783 0.1955 0.0681
vn -0.5945 0.2021 0.7783
vn -0.0496 -0.6993 0.7131
vn -0.0496 0.6993 0.7131
vn -0.5945 -0.2021 0.7783
vn 0.9783 -0.1955 0.0681
vn 0.9013 0.4199 0.1068
vn 0.9264 0.3373 0.1676
vn 0.8974 0.4119 0.1579
vn 0.8681 0.4834 0.1125
vn 0.9083 0.3791 0.1767
vn 0.9707 0.1686 0.1712
vn 0.9443 0.2839 0.1665
vn 0.9864 0.1098 0.1225
vn 0.9864 0.1098 0.1224
vn 0.9874 -0.0014 0.1581
vn 0.9580 0.1624 0.2361
vn 0.9581 0.1624 0.2361
vn 0.9608 0.2270 0.1591
vn 0.9584 0.2614 0.1144
vn 0.9199 0.3722 0.1233
vn 0.9341 0.3202 0.1578
vn 0.8475 0.5133 0.1349
vn -0.1736 -0.0000 0.9848
vn 0.1736 -0.0157 -0.9847
vn 0.1725 0.1134 -0.9785
vn 0.8569 0.4905 0.1587
vn 0.8386 0.5227 0.1534
vn 0.8728 0.4622 0.1571
vn 0.0694 -0.0000 -0.9976
vn 0.9550 0.2477 0.1630
vn 0.9560 0.2348 0.1758
vn 0.9663 0.1947 0.1685
vn 0.9033 0.3908 0.1767
vn 0.9034 0.3908 0.1767
vn 0.8324 0.5331 0.1516
vn -0.9074 -0.4154 -0.0631
vn -0.9074 0.4154 -0.0631
vn 0.9784 0.1954 0.0681
vn 0.9784 -0.1954 0.0681
vn 0.9264 0.3372 0.1676
vn 0.8681 0.4834 0.1126
vn 0.9083 0.3791 0.1766
vn 0.9608 0.2271 0.1591
vn 0.9608 0.2271 0.1590
vn 0.8727 0.4622 0.1571
vn 0.8727 0.4622 0.1572
vt 0.368994 0.135576
vt 0.395433 0.134801
vt 0.377482 0.134687
vt 0.368231 0.135603
vt 0.414897 0.248425
vt 0.355739 0.147320
vt 0.336155 0.177232
vt 0.324817 0.194904
vt 0.322363 0.199660
vt 0.321573 0.222743
vt 0.321749 0.246852
vt 0.353651 0.256374
vt 0.355965 0.257069
vt 0.321696 0.243691
vt 0.353482 0.252664
vt 0.353882 0.162162
vt 0.346406 0.162306
vt 0.355949 0.162124
vt 0.396693 0.134974
vt 0.412093 0.137752
vt 0.397759 0.257450
vt 0.379544 0.258423
vt 0.399593 0.257323
vt 0.367657 0.233115
vt 0.366910 0.233140
vt 0.367682 0.234571
vt 0.990769 0.812222
vt 0.966086 0.636940
vt 0.366935 0.234595
vt 0.990798 0.811469
vt 0.365092 0.250792
vt 0.370964 0.250689
vt 0.989906 0.895336
vt 0.369747 0.249436
vt 0.967592 0.717213
vt 0.370686 0.233240
vt 0.369514 0.234745
vt 0.967337 0.731900
vt 0.990798 0.814073
vt 0.966262 0.651832
vt 0.366610 0.249490
vt 0.989906 0.892185
vt 0.366456 0.250767
vt 0.367202 0.249480
vt 0.989881 0.892782
vt 0.367140 0.250754
vt 0.366561 0.258200
vt 0.367245 0.258187
vt 0.364118 0.235350
vt 0.364271 0.250063
vt 0.335926 0.251074
vt 0.335771 0.247656
vt 0.873607 0.942405
vt 0.989496 0.811953
vt 0.989525 0.811201
vt 0.967387 0.636940
vt 0.872859 0.942416
vt 0.875443 0.957299
vt 0.990588 0.895235
vt 0.968282 0.717213
vt 0.968638 0.731900
vt 0.875436 0.942611
vt 0.989525 0.813805
vt 0.872305 0.957299
vt 0.966952 0.651832
vt 0.990588 0.892085
vt 0.872898 0.957299
vt 0.990564 0.892682
vt 0.761713 0.182517
vt 0.602592 0.176392
vt 0.880686 0.537261
vt 0.964942 0.608658
vt 0.602621 0.182758
vt 0.887056 0.537280
vt 0.766973 0.181496
vt 0.937101 0.939286
vt 0.607899 0.177954
vt 0.607913 0.181100
vt 0.940248 0.939300
vt 0.761713 0.170811
vt 0.872385 0.639762
vt 0.880686 0.548903
vt 0.872385 0.646127
vt 0.964942 0.620365
vt 0.887056 0.548922
vt 0.937101 0.930175
vt 0.766973 0.172334
vt 0.940248 0.930189
vt 0.602544 0.179604
vt 0.883871 0.536639
vt 0.938674 0.939828
vt 0.607853 0.179552
vt 0.938674 0.929853
vt 0.883871 0.550360
vt 0.872224 0.643012
vt 0.954206 0.413019
vt 0.954206 0.411776
vt 0.953074 0.413022
vt 0.953074 0.411779
vt 0.606223 0.176392
vt 0.765360 0.182517
vt 0.968590 0.608658
vt 0.941926 0.940155
vt 0.606252 0.182758
vt 0.868759 0.639743
vt 0.935559 0.928484
vt 0.765360 0.170811
vt 0.868759 0.646109
vt 0.968590 0.620365
vt 0.941926 0.928513
vt 0.868598 0.642993
vt 0.938743 0.927051
vt 0.606175 0.179604
s 0
usemtl Material.010
f 5/5/1 19/19/1 20/20/1
f 19/19/2 21/21/2 2/2/2
f 29/32/3 38/48/4 36/46/4
f 31/36/5 1/1/5 3/3/5
f 22/22/6 31/36/6 3/3/6
f 34/43/7 37/47/7 28/31/7
f 13/13/8 28/31/8 37/47/8
f 18/18/9 6/6/9 4/4/9
f 13/13/10 39/49/10 40/50/10
f 3/3/11 21/21/11 22/22/11
f 27/28/12 47/65/12 33/40/12
f 48/67/13 47/64/13 44/57/13
f 70/113/14 52/78/14 66/104/14
f 59/93/15 52/79/15 58/91/15
f 69/111/16 54/83/16 68/108/16
f 49/69/17 67/107/17 65/101/17
f 68/109/18 50/72/18 66/102/18
f 53/81/19 69/111/19 67/105/19
f 51/76/15 59/93/15 58/91/15
f 51/77/20 70/113/20 65/100/21
f 62/97/22 63/98/22 64/99/22
f 49/70/23 70/113/23 57/89/23
f 55/86/24 69/112/24 59/93/24
f 56/88/25 66/103/25 52/79/25
f 65/101/26 55/87/26 51/75/26
f 69/112/27 56/88/27 59/93/27
f 70/113/28 50/73/28 57/89/28
f 15/15/29 13/13/29 12/12/29
f 18/18/30 15/15/30 16/16/30
f 16/16/31 6/6/31 18/18/31
f 41/51/32 15/15/32 12/12/32
f 4/4/33 24/24/33 25/25/33
f 25/25/34 26/26/34 27/29/34
f 25/25/35 27/29/35 39/49/35
f 36/46/36 30/34/36 29/32/37
f 29/32/38 32/37/38 31/36/38
f 24/24/39 32/37/40 26/26/40
f 33/41/41 36/46/41 34/43/41
f 34/43/42 38/48/42 37/47/42
f 28/31/43 33/41/43 34/43/43
f 39/49/44 33/41/44 40/50/44
f 11/11/45 42/52/45 41/51/45
f 35/45/46 45/59/46 30/33/46
f 33/42/46 48/68/46 35/45/46
f 32/38/17 45/60/17 46/61/17
f 27/30/47 43/54/47 44/55/47
f 26/27/48 46/63/48 43/54/48
f 8/8/49 10/10/49 9/9/49
f 42/52/50 8/8/50 7/7/50
f 15/15/51 42/52/51 7/7/51
f 57/90/52 54/85/52 60/94/52
f 53/82/52 57/90/52 60/94/52
f 5/5/1 23/23/1 19/19/1
f 19/19/53 23/23/53 21/21/53
f 29/32/4 22/22/4 38/48/4
f 31/36/5 24/24/5 1/1/54
f 22/22/6 29/32/55 31/36/6
f 13/13/8 40/50/8 28/31/8
f 4/4/56 25/25/56 18/18/56
f 25/25/9 39/49/9 18/18/57
f 13/13/58 18/18/58 39/49/58
f 3/3/11 2/2/11 21/21/11
f 27/28/12 44/56/12 47/65/12
f 44/57/13 43/53/13 48/67/13
f 43/53/13 46/62/13 48/67/13
f 46/62/13 45/58/13 48/67/13
f 70/113/14 58/92/14 52/78/14
f 59/93/15 56/88/15 52/79/15
f 69/111/59 60/95/59 54/83/59
f 49/69/17 53/80/17 67/107/17
f 68/109/18 54/84/18 50/72/18
f 53/81/60 60/95/60 69/111/60
f 51/76/15 55/86/15 59/93/15
f 51/77/21 58/92/21 70/113/21
f 62/97/22 61/96/22 63/98/22
f 49/70/61 65/100/61 70/113/61
f 55/86/24 67/106/24 69/112/24
f 56/88/25 68/110/25 66/103/25
f 65/101/26 67/107/26 55/87/26
f 69/112/27 68/110/27 56/88/27
f 70/113/62 66/104/62 50/73/62
f 18/18/63 13/13/63 15/15/63
f 16/16/31 17/17/31 6/6/31
f 41/51/64 42/52/64 15/15/64
f 4/4/33 1/1/33 24/24/65
f 25/25/34 24/24/34 26/26/34
f 36/46/37 35/44/37 30/34/37
f 29/32/38 30/34/38 32/37/38
f 24/24/40 31/36/40 32/37/40
f 33/41/66 35/44/66 36/46/67
f 34/43/42 36/46/42 38/48/42
f 28/31/43 40/50/43 33/41/43
f 39/49/44 27/29/44 33/41/44
f 11/11/45 14/14/45 42/52/45
f 35/45/46 48/68/46 45/59/46
f 33/42/46 47/66/46 48/68/46
f 32/38/17 30/35/17 45/60/17
f 27/30/47 26/27/47 43/54/47
f 26/27/48 32/39/48 46/63/48
f 8/8/49 14/14/49 10/10/49
f 42/52/50 14/14/50 8/8/50
f 17/17/68 16/16/68 7/7/69
f 16/16/51 15/15/51 7/7/51
f 57/90/52 50/74/52 54/85/52
f 53/82/52 49/71/52 57/90/52
