# Blender 3.5.0
# www.blender.org
mtllib rightdoor4.mtl
o rightdoor
v -0.611680 0.183223 0.533369
v -0.638409 -0.017242 0.545678
v -0.626537 0.119179 0.544743
v -0.608267 0.188881 0.532032
v -0.933317 -0.151419 -0.271183
v -0.602973 0.283945 0.436974
v -0.609975 0.433705 0.199987
v -0.604763 0.519957 0.056611
v -0.606979 0.538790 0.019240
v -0.664257 0.547608 -0.147021
v -0.727114 0.549331 -0.319720
v -0.877535 0.313262 -0.347312
v -0.886658 0.296046 -0.349987
v -0.718872 0.549331 -0.297074
v -0.868984 0.314138 -0.320323
v -0.634860 0.299665 0.328485
v -0.609939 0.355491 0.319414
v -0.640241 0.284158 0.330443
v -0.641087 -0.026729 0.545068
v -0.644682 -0.144091 0.521835
v -0.953936 -0.019608 -0.334599
v -0.949193 0.119179 -0.341747
v -0.957121 -0.033451 -0.332674
v -0.868163 0.205936 -0.164283
v -0.867283 0.211594 -0.164699
v -0.871958 0.205936 -0.174709
v -0.871078 0.211594 -0.175124
v -0.907235 0.227415 -0.293058
v -0.915239 0.182993 -0.290145
v -0.911919 0.192121 -0.281022
v -0.871567 0.182993 -0.164480
v -0.875439 0.192121 -0.175120
v -0.908633 0.215905 -0.282218
v -0.911388 0.217209 -0.291547
v -0.909430 0.211426 -0.281928
v -0.912701 0.212054 -0.291069
v -0.927793 0.217209 -0.345860
v -0.929107 0.212054 -0.345382
v -0.866987 0.232892 -0.182317
v -0.903522 0.233500 -0.288372
v -0.796829 0.444567 -0.330888
v -0.788266 0.445331 -0.306257
v -0.862639 0.205936 -0.178101
v -0.861759 0.211594 -0.178516
v -0.906976 0.192121 -0.282821
v -0.866121 0.192121 -0.178512
v -0.903690 0.215905 -0.284017
v -0.904487 0.211426 -0.283727
v -0.738266 0.354833 0.367023
v -0.738266 0.306255 0.367023
v -0.721115 0.342550 0.403795
v -0.721115 0.318538 0.403795
v -0.651671 0.354833 0.345463
v -0.651671 0.306255 0.345463
v -0.653344 0.342550 0.386923
v -0.653344 0.318538 0.386923
v -0.742963 0.330544 0.368192
v -0.725097 0.330544 0.404787
v -0.650901 0.330544 0.386315
v -0.640907 0.330544 0.342783
v -0.631340 0.291978 0.348669
v -0.628099 0.291978 0.357573
v -0.628341 0.300465 0.347578
v -0.625100 0.300465 0.356482
v -0.731547 0.354833 0.394009
v -0.731547 0.306255 0.394009
v -0.644952 0.354833 0.372450
v -0.644952 0.306255 0.372450
v -0.634189 0.330544 0.369770
v -0.736244 0.330544 0.395178
vn -0.9399 -0.0254 0.3404
vn -0.9122 0.2476 0.3264
vn -0.9261 0.1841 0.3294
vn -0.9109 0.2348 0.3392
vn -0.9223 0.1947 0.3338
vn -0.8787 0.3968 0.2654
vn -0.8602 0.4527 0.2348
vn -0.8589 0.3908 0.3309
vn -0.7933 0.5332 0.2939
vn -0.9385 0.0666 0.3389
vn -0.0130 -0.9993 -0.0357
vn -0.9145 0.1719 0.3663
vn -0.5948 -0.1888 0.7814
vn 0.2416 -0.0000 0.9704
vn 0.8827 -0.4154 -0.2197
vn -0.0000 1.0000 -0.0000
vn -0.0000 -1.0000 -0.0000
vn 0.8827 0.4154 -0.2198
vn -0.5948 0.1887 0.7814
vn -0.5949 0.1887 0.7814
vn 0.8796 -0.3519 -0.3201
vn -0.9517 0.1955 0.2369
vn 0.7206 0.2021 0.6632
vn 0.1727 -0.6993 0.6936
vn 0.1727 0.6993 0.6936
vn 0.7206 -0.2021 0.6632
vn -0.9517 -0.1955 0.2369
vn -0.8690 0.4199 0.2617
vn -0.8832 0.3373 0.3259
vn -0.8564 0.4119 0.3114
vn -0.8354 0.4834 0.2616
vn -0.8638 0.3791 0.3318
vn -0.8638 0.3791 0.3317
vn -0.9262 0.1688 0.3371
vn -0.9011 0.2838 0.3280
vn -0.9501 0.1098 0.2919
vn -0.9450 -0.0014 0.3271
vn -0.9025 0.1624 0.3988
vn -0.9186 0.2270 0.3235
vn -0.9240 0.2614 0.2791
vn -0.8845 0.3722 0.2812
vn -0.8926 0.3201 0.3176
vn -0.8112 0.5133 0.2800
vn 0.3420 -0.0000 0.9397
vn -0.3420 -0.0157 -0.9396
vn -0.3398 0.1134 -0.9336
vn -0.8163 0.4905 0.3051
vn -0.7992 0.5227 0.2966
vn -0.8322 0.4622 0.3063
vn -0.2416 -0.0000 -0.9704
vn -0.9110 0.2348 0.3391
vn -0.9223 0.1946 0.3338
vn -0.8602 0.4527 0.2349
vn -0.7933 0.5332 0.2938
vn -0.5948 -0.1887 0.7814
vn -0.5949 -0.1887 0.7814
vn 0.8827 -0.4154 -0.2198
vn 0.8827 0.4154 -0.2197
vn -0.5948 0.1888 0.7814
vn -0.8832 0.3372 0.3259
vn -0.9025 0.1624 0.3989
vn -0.8925 0.3202 0.3176
vn -0.7992 0.5227 0.2967
vt 0.245367 0.287640
vt 0.271805 0.288414
vt 0.253854 0.288528
vt 0.244603 0.287613
vt 0.291270 0.174791
vt 0.232111 0.275899
vt 0.212528 0.245991
vt 0.201189 0.228323
vt 0.198735 0.223568
vt 0.197945 0.200485
vt 0.198121 0.176376
vt 0.230023 0.166846
vt 0.232338 0.166150
vt 0.198069 0.179537
vt 0.229854 0.170555
vt 0.230254 0.261057
vt 0.222779 0.260915
vt 0.232321 0.261095
vt 0.273066 0.288241
vt 0.288465 0.285464
vt 0.274131 0.165765
vt 0.255916 0.164793
vt 0.275965 0.165892
vt 0.244030 0.190101
vt 0.243283 0.190076
vt 0.244054 0.188646
vt 0.990999 0.036789
vt 0.967034 0.445238
vt 0.243307 0.188621
vt 0.991028 0.037541
vt 0.241465 0.172424
vt 0.247337 0.172527
vt 0.989899 0.869565
vt 0.968580 0.566302
vt 0.246120 0.173780
vt 0.247058 0.189976
vt 0.991028 0.034938
vt 0.245887 0.188471
vt 0.968834 0.580990
vt 0.967210 0.430346
vt 0.242982 0.173726
vt 0.989899 0.872716
vt 0.242829 0.172450
vt 0.243574 0.173737
vt 0.989875 0.872119
vt 0.243513 0.172462
vt 0.242933 0.165017
vt 0.243617 0.165029
vt 0.240490 0.187867
vt 0.240643 0.173154
vt 0.212298 0.172149
vt 0.212143 0.175568
vt 0.406475 0.942065
vt 0.989726 0.037058
vt 0.968335 0.445238
vt 0.407222 0.942077
vt 0.989755 0.037810
vt 0.404637 0.956960
vt 0.990582 0.869665
vt 0.967890 0.566302
vt 0.404645 0.942271
vt 0.967533 0.580990
vt 0.989755 0.035206
vt 0.967900 0.430346
vt 0.407775 0.956960
vt 0.990582 0.872816
vt 0.407183 0.956960
vt 0.990557 0.872219
vt 0.949834 0.651832
vt 0.109275 0.939996
vt 0.580970 0.182758
vt 0.966000 0.209557
vt 0.581000 0.176392
vt 0.115645 0.939977
vt 0.944574 0.650811
vt 0.068264 0.932394
vt 0.586277 0.181195
vt 0.586292 0.178049
vt 0.071411 0.932380
vt 0.949834 0.640126
vt 0.843269 0.102866
vt 0.109275 0.928354
vt 0.843269 0.096501
vt 0.966000 0.197851
vt 0.115645 0.928335
vt 0.068264 0.941506
vt 0.944574 0.641649
vt 0.071411 0.941491
vt 0.580922 0.179545
vt 0.112460 0.940618
vt 0.069837 0.931852
vt 0.586231 0.179597
vt 0.069837 0.941827
vt 0.843108 0.099616
vt 0.112460 0.926897
vt 0.804492 0.989255
vt 0.804492 0.990498
vt 0.805585 0.989258
vt 0.805585 0.990501
vt 0.584601 0.182758
vt 0.946187 0.651832
vt 0.969648 0.209557
vt 0.073089 0.931526
vt 0.584630 0.176392
vt 0.839644 0.102885
vt 0.066722 0.943196
vt 0.946187 0.640126
vt 0.969648 0.197851
vt 0.839644 0.096520
vt 0.073089 0.943168
vt 0.839482 0.099635
vt 0.069905 0.944629
vt 0.584552 0.179545
s 0
usemtl Material.001
f 5/5/1 19/19/1 23/23/1
f 19/19/2 21/21/2 23/23/2
f 38/48/3 29/32/3 36/46/3
f 1/1/4 31/36/4 3/3/4
f 22/22/5 31/36/5 29/32/5
f 34/43/6 28/31/6 37/47/6
f 13/13/7 28/31/7 40/50/7
f 18/18/8 39/49/8 25/25/8
f 13/13/9 39/49/9 18/18/9
f 3/3/10 21/21/10 2/2/10
f 47/64/11 27/28/11 33/40/11
f 48/67/12 45/58/12 46/61/12
f 70/113/13 52/78/13 58/92/13
f 52/79/14 59/93/14 58/91/14
f 69/111/15 54/83/15 60/94/15
f 65/101/16 53/80/16 49/69/16
f 66/102/17 54/84/17 68/108/17
f 69/111/18 53/81/18 67/105/18
f 51/76/14 59/93/14 55/86/14
f 70/113/19 51/77/19 65/100/20
f 62/97/21 63/98/21 64/99/21
f 49/71/22 70/113/22 65/100/22
f 55/86/23 69/112/23 67/106/23
f 56/88/24 66/103/24 68/110/24
f 55/87/25 65/101/25 51/75/25
f 56/88/26 69/112/26 59/93/26
f 50/73/27 70/113/27 57/89/27
f 15/15/28 12/12/28 13/13/28
f 15/15/29 18/18/29 16/16/29
f 16/16/30 6/6/30 17/17/30
f 41/51/31 15/15/31 42/52/31
f 4/4/32 24/24/32 1/1/33
f 25/25/34 26/26/34 24/24/34
f 25/25/35 39/49/35 27/29/35
f 36/46/36 30/35/36 35/44/36
f 29/32/37 32/38/37 30/35/37
f 24/24/38 32/38/38 31/36/38
f 36/46/39 33/41/39 34/43/39
f 34/43/40 38/48/40 36/46/40
f 28/31/41 33/41/41 40/50/41
f 39/49/42 33/41/42 27/29/42
f 11/11/43 42/52/43 14/14/43
f 45/59/44 35/45/44 30/33/44
f 48/68/44 33/42/44 35/45/44
f 32/39/16 45/60/16 30/34/16
f 27/30/45 43/54/45 26/27/45
f 26/27/46 46/63/46 32/37/46
f 8/8/47 10/10/47 14/14/47
f 8/8/48 42/52/48 7/7/48
f 7/7/49 42/52/49 15/15/49
f 54/85/50 57/90/50 60/95/50
f 53/82/50 57/90/50 49/70/50
f 5/5/1 20/20/1 19/19/1
f 19/19/2 2/2/2 21/21/2
f 38/48/3 22/22/3 29/32/3
f 1/1/51 24/24/4 31/36/4
f 22/22/52 3/3/52 31/36/52
f 13/13/53 37/47/53 28/31/53
f 25/25/8 4/4/8 18/18/8
f 18/18/8 4/4/8 6/6/8
f 13/13/54 40/50/54 39/49/54
f 3/3/10 22/22/10 21/21/10
f 47/64/11 44/55/11 27/28/11
f 46/61/12 43/53/12 48/67/12
f 43/53/12 44/56/12 48/67/12
f 44/56/12 47/65/12 48/67/12
f 70/113/55 66/104/56 52/78/55
f 52/79/14 56/88/14 59/93/14
f 69/111/57 68/109/57 54/83/57
f 65/101/16 67/107/16 53/80/16
f 66/102/17 50/72/17 54/84/17
f 69/111/58 60/94/58 53/81/58
f 51/76/14 58/91/14 59/93/14
f 70/113/59 58/92/59 51/77/59
f 62/97/21 61/96/21 63/98/21
f 49/71/22 57/89/22 70/113/22
f 55/86/23 59/93/23 69/112/23
f 56/88/24 52/79/24 66/103/24
f 55/87/25 67/107/25 65/101/25
f 56/88/26 68/110/26 69/112/26
f 50/73/27 66/104/27 70/113/27
f 15/15/60 13/13/60 18/18/60
f 16/16/30 18/18/30 6/6/30
f 41/51/31 12/12/31 15/15/31
f 4/4/32 25/25/33 24/24/32
f 25/25/34 27/29/34 26/26/34
f 36/46/36 29/32/36 30/35/36
f 29/32/37 31/36/37 32/38/37
f 24/24/61 26/26/61 32/38/61
f 36/46/39 35/44/39 33/41/39
f 34/43/40 37/47/40 38/48/40
f 28/31/41 34/43/41 33/41/41
f 39/49/62 40/50/62 33/41/62
f 11/11/43 41/51/43 42/52/43
f 45/59/44 48/68/44 35/45/44
f 48/68/44 47/66/44 33/42/44
f 32/39/16 46/62/16 45/60/16
f 27/30/45 44/57/45 43/54/45
f 26/27/46 43/54/46 46/63/46
f 8/8/47 9/9/47 10/10/47
f 8/8/63 14/14/63 42/52/63
f 15/15/49 16/16/49 7/7/49
f 16/16/49 17/17/49 7/7/49
f 54/85/50 50/74/50 57/90/50
f 53/82/50 60/95/50 57/90/50
