# Blender 3.5.0
# www.blender.org
mtllib rightdoor6.mtl
o rightdoor
v -0.613881 0.183223 0.530962
v -0.638067 -0.017242 0.547725
v -0.626537 0.119179 0.544743
v -0.610752 0.188881 0.529052
v -1.070341 -0.151419 -0.205516
v -0.622045 0.283945 0.434520
v -0.670093 0.433705 0.202349
v -0.689857 0.519957 0.060246
v -0.698529 0.538790 0.023827
v -0.783807 0.547608 -0.129961
v -0.875699 0.549331 -0.289122
v -1.028625 0.313262 -0.290175
v -1.038074 0.296046 -0.291225
v -0.863649 0.549331 -0.268251
v -1.015518 0.314138 -0.265080
v -0.672286 0.299665 0.333215
v -0.649319 0.355491 0.319955
v -0.677246 0.284158 0.336079
v -0.640810 -0.026729 0.547590
v -0.648385 -0.144091 0.525333
v -1.101658 -0.019608 -0.264387
v -1.098228 0.119179 -0.272251
v -1.104461 -0.033451 -0.261939
v -0.987613 0.205936 -0.111553
v -0.986819 0.211594 -0.112115
v -0.993161 0.205936 -0.121162
v -0.992366 0.211594 -0.121724
v -1.048453 0.227415 -0.231587
v -1.055830 0.182993 -0.227328
v -1.050976 0.192121 -0.218921
v -0.991000 0.182993 -0.111157
v -0.996661 0.192121 -0.120963
v -1.047948 0.215905 -0.220670
v -1.052280 0.217209 -0.229378
v -1.048682 0.211426 -0.220246
v -1.053491 0.212054 -0.228679
v -1.077868 0.217209 -0.280017
v -1.079079 0.212054 -0.279318
v -0.989587 0.232892 -0.129518
v -1.043983 0.233500 -0.227617
v -0.946294 0.444567 -0.288014
v -0.933583 0.445331 -0.265245
v -0.984573 0.205936 -0.126121
v -0.983778 0.211594 -0.126683
v -1.046421 0.192121 -0.221551
v -0.988073 0.192121 -0.125921
v -1.043392 0.215905 -0.223300
v -1.044127 0.211426 -0.222876
v -0.767429 0.354833 0.389124
v -0.767429 0.306255 0.389124
v -0.744153 0.342550 0.422360
v -0.744153 0.318538 0.422360
v -0.685894 0.354833 0.352855
v -0.685894 0.306255 0.352855
v -0.680342 0.342550 0.393976
v -0.680342 0.318538 0.393976
v -0.771852 0.330544 0.391091
v -0.747902 0.330544 0.424028
v -0.678042 0.330544 0.392952
v -0.675759 0.330544 0.348347
v -0.665315 0.291978 0.352482
v -0.660577 0.291978 0.360688
v -0.662551 0.300465 0.350886
v -0.657813 0.300465 0.359093
v -0.756126 0.354833 0.414534
v -0.756126 0.306255 0.414534
v -0.674591 0.354833 0.378265
v -0.674591 0.306255 0.378265
v -0.664456 0.330544 0.373757
v -0.760549 0.330544 0.416501
vn -0.8665 -0.0254 0.4985
vn -0.8417 0.2476 0.4798
vn -0.8548 0.1841 0.4852
vn -0.8382 0.2348 0.4922
vn -0.8504 0.1947 0.4889
vn -0.8193 0.3968 0.4140
vn -0.8063 0.4527 0.3806
vn -0.7884 0.3908 0.4751
vn -0.7884 0.3908 0.4750
vn -0.7302 0.5332 0.4271
vn -0.8654 0.0666 0.4967
vn -0.0190 -0.9993 -0.0329
vn -0.8370 0.1719 0.5195
vn -0.4501 -0.1888 0.8728
vn 0.4064 -0.0000 0.9137
vn 0.8311 -0.4154 -0.3697
vn -0.0000 1.0000 -0.0000
vn -0.0000 -1.0000 -0.0000
vn 0.8311 0.4154 -0.3697
vn -0.4501 0.1887 0.8728
vn 0.8106 -0.3519 -0.4680
vn -0.8961 0.1955 0.3986
vn 0.8248 0.2021 0.5280
vn 0.2905 -0.6993 0.6531
vn 0.2905 0.6993 0.6531
vn 0.8248 -0.2021 0.5280
vn -0.8961 -0.1955 0.3986
vn -0.8104 0.4199 0.4086
vn -0.8132 0.3373 0.4743
vn -0.7893 0.4119 0.4554
vn -0.7773 0.4834 0.4027
vn -0.7931 0.3791 0.4767
vn -0.8536 0.1688 0.4928
vn -0.8304 0.2838 0.4794
vn -0.8850 0.1098 0.4524
vn -0.8738 -0.0014 0.4863
vn -0.8196 0.1624 0.5495
vn -0.8485 0.2270 0.4781
vn -0.8615 0.2614 0.4353
vn -0.8223 0.3722 0.4305
vn -0.8238 0.3201 0.4678
vn -0.7503 0.5133 0.4167
vn 0.5000 -0.0000 0.8660
vn -0.4999 -0.0157 -0.8659
vn -0.4968 0.1134 -0.8604
vn -0.7509 0.4905 0.4422
vn -0.7356 0.5227 0.4309
vn -0.7664 0.4622 0.4462
vn -0.7664 0.4622 0.4461
vn -0.4064 -0.0000 -0.9137
vn -0.8504 0.1946 0.4889
vn -0.8063 0.4527 0.3807
vn -0.7303 0.5332 0.4271
vn -0.8653 0.0666 0.4967
vn -0.4501 -0.1887 0.8728
vn -0.4501 0.1888 0.8728
vn -0.8132 0.3372 0.4743
vn -0.8195 0.1624 0.5496
vn -0.8238 0.3202 0.4678
vt 0.245367 0.287640
vt 0.271805 0.288414
vt 0.253854 0.288528
vt 0.244603 0.287613
vt 0.291270 0.174791
vt 0.232111 0.275899
vt 0.212528 0.245991
vt 0.201189 0.228323
vt 0.198735 0.223568
vt 0.197945 0.200485
vt 0.198121 0.176376
vt 0.230023 0.166846
vt 0.232338 0.166150
vt 0.198069 0.179537
vt 0.229854 0.170555
vt 0.230254 0.261057
vt 0.222779 0.260915
vt 0.232321 0.261095
vt 0.273066 0.288241
vt 0.288465 0.285464
vt 0.274131 0.165765
vt 0.255916 0.164793
vt 0.275965 0.165892
vt 0.244030 0.190101
vt 0.243283 0.190076
vt 0.244054 0.188646
vt 0.990999 0.036789
vt 0.967034 0.445238
vt 0.243307 0.188621
vt 0.991028 0.037541
vt 0.241465 0.172424
vt 0.247337 0.172527
vt 0.989899 0.869565
vt 0.968580 0.566302
vt 0.246120 0.173780
vt 0.247058 0.189976
vt 0.991028 0.034938
vt 0.245887 0.188471
vt 0.968834 0.580990
vt 0.967210 0.430346
vt 0.242982 0.173726
vt 0.989899 0.872716
vt 0.242829 0.172450
vt 0.243574 0.173737
vt 0.989875 0.872119
vt 0.243513 0.172462
vt 0.242933 0.165017
vt 0.243617 0.165029
vt 0.240490 0.187867
vt 0.240643 0.173154
vt 0.212298 0.172149
vt 0.212143 0.175568
vt 0.406475 0.942065
vt 0.989726 0.037058
vt 0.968335 0.445238
vt 0.407222 0.942077
vt 0.989755 0.037810
vt 0.404637 0.956960
vt 0.990582 0.869665
vt 0.967890 0.566302
vt 0.404645 0.942271
vt 0.967533 0.580990
vt 0.989755 0.035206
vt 0.967900 0.430346
vt 0.407775 0.956960
vt 0.990582 0.872816
vt 0.407183 0.956960
vt 0.990557 0.872219
vt 0.949834 0.651832
vt 0.109275 0.939996
vt 0.580970 0.182758
vt 0.966000 0.209557
vt 0.581000 0.176392
vt 0.115645 0.939977
vt 0.944574 0.650811
vt 0.068264 0.932394
vt 0.586277 0.181195
vt 0.586292 0.178049
vt 0.071411 0.932380
vt 0.949834 0.640126
vt 0.843269 0.102866
vt 0.109275 0.928354
vt 0.843269 0.096501
vt 0.966000 0.197851
vt 0.115645 0.928335
vt 0.068264 0.941506
vt 0.944574 0.641649
vt 0.071411 0.941491
vt 0.580922 0.179545
vt 0.112460 0.940618
vt 0.069837 0.931852
vt 0.586231 0.179597
vt 0.069837 0.941827
vt 0.843108 0.099616
vt 0.112460 0.926897
vt 0.804492 0.989255
vt 0.804492 0.990498
vt 0.805585 0.989258
vt 0.805585 0.990501
vt 0.584601 0.182758
vt 0.946187 0.651832
vt 0.969648 0.209557
vt 0.073089 0.931526
vt 0.584630 0.176392
vt 0.839644 0.102885
vt 0.066722 0.943196
vt 0.946187 0.640126
vt 0.969648 0.197851
vt 0.839644 0.096520
vt 0.073089 0.943168
vt 0.839482 0.099635
vt 0.069905 0.944629
vt 0.584552 0.179545
s 0
usemtl Material.001
f 5/5/1 19/19/1 23/23/1
f 19/19/2 21/21/2 23/23/2
f 38/48/3 29/32/3 36/46/3
f 1/1/4 31/36/4 3/3/4
f 22/22/5 31/36/5 29/32/5
f 34/43/6 28/31/6 37/47/6
f 13/13/7 28/31/7 40/50/7
f 18/18/8 39/49/9 25/25/8
f 13/13/10 39/49/10 18/18/10
f 3/3/11 21/21/11 2/2/11
f 47/64/12 27/28/12 33/40/12
f 48/67/13 45/58/13 46/61/13
f 70/113/14 52/78/14 58/92/14
f 52/79/15 59/93/15 58/91/15
f 69/111/16 54/83/16 60/94/16
f 65/101/17 53/80/17 49/69/17
f 66/102/18 54/84/18 68/108/18
f 69/111/19 53/81/19 67/105/19
f 51/76/15 59/93/15 55/86/15
f 70/113/20 51/77/20 65/100/20
f 62/97/21 63/98/21 64/99/21
f 49/71/22 70/113/22 65/100/22
f 55/86/23 69/112/23 67/106/23
f 56/88/24 66/103/24 68/110/24
f 55/87/25 65/101/25 51/75/25
f 56/88/26 69/112/26 59/93/26
f 50/73/27 70/113/27 57/89/27
f 15/15/28 12/12/28 13/13/28
f 15/15/29 18/18/29 16/16/29
f 16/16/30 6/6/30 17/17/30
f 41/51/31 15/15/31 42/52/31
f 4/4/32 24/24/32 1/1/32
f 25/25/33 26/26/33 24/24/33
f 25/25/34 39/49/34 27/29/34
f 36/46/35 30/35/35 35/44/35
f 29/32/36 32/38/36 30/35/36
f 24/24/37 32/38/37 31/36/37
f 36/46/38 33/41/38 34/43/38
f 34/43/39 38/48/39 36/46/39
f 28/31/40 33/41/40 40/50/40
f 39/49/41 33/41/41 27/29/41
f 11/11/42 42/52/42 14/14/42
f 45/59/43 35/45/43 30/33/43
f 48/68/43 33/42/43 35/45/43
f 32/39/17 45/60/17 30/34/17
f 27/30/44 43/54/44 26/27/44
f 26/27/45 46/63/45 32/37/45
f 8/8/46 10/10/46 14/14/46
f 8/8/47 42/52/47 7/7/47
f 7/7/48 42/52/49 15/15/48
f 54/85/50 57/90/50 60/95/50
f 53/82/50 57/90/50 49/70/50
f 5/5/1 20/20/1 19/19/1
f 19/19/2 2/2/2 21/21/2
f 38/48/3 22/22/3 29/32/3
f 1/1/4 24/24/4 31/36/4
f 22/22/51 3/3/51 31/36/51
f 13/13/52 37/47/52 28/31/52
f 25/25/9 4/4/9 18/18/9
f 18/18/8 4/4/8 6/6/8
f 13/13/53 40/50/53 39/49/53
f 3/3/11 22/22/11 21/21/54
f 47/64/12 44/55/12 27/28/12
f 46/61/13 43/53/13 48/67/13
f 43/53/13 44/56/13 48/67/13
f 44/56/13 47/65/13 48/67/13
f 70/113/55 66/104/55 52/78/55
f 52/79/15 56/88/15 59/93/15
f 69/111/16 68/109/16 54/83/16
f 65/101/17 67/107/17 53/80/17
f 66/102/18 50/72/18 54/84/18
f 69/111/19 60/94/19 53/81/19
f 51/76/15 58/91/15 59/93/15
f 70/113/56 58/92/56 51/77/56
f 62/97/21 61/96/21 63/98/21
f 49/71/22 57/89/22 70/113/22
f 55/86/23 59/93/23 69/112/23
f 56/88/24 52/79/24 66/103/24
f 55/87/25 67/107/25 65/101/25
f 56/88/26 68/110/26 69/112/26
f 50/73/27 66/104/27 70/113/27
f 15/15/57 13/13/57 18/18/57
f 16/16/30 18/18/30 6/6/30
f 41/51/31 12/12/31 15/15/31
f 4/4/32 25/25/32 24/24/32
f 25/25/33 27/29/33 26/26/33
f 36/46/35 29/32/35 30/35/35
f 29/32/36 31/36/36 32/38/36
f 24/24/58 26/26/58 32/38/58
f 36/46/38 35/44/38 33/41/38
f 34/43/39 37/47/39 38/48/39
f 28/31/40 34/43/40 33/41/40
f 39/49/59 40/50/59 33/41/59
f 11/11/42 41/51/42 42/52/42
f 45/59/43 48/68/43 35/45/43
f 48/68/43 47/66/43 33/42/43
f 32/39/17 46/62/17 45/60/17
f 27/30/44 44/57/44 43/54/44
f 26/27/45 43/54/45 46/63/45
f 8/8/46 9/9/46 10/10/46
f 8/8/47 14/14/47 42/52/47
f 15/15/48 16/16/48 7/7/48
f 16/16/48 17/17/48 7/7/48
f 54/85/50 50/74/50 57/90/50
f 53/82/50 60/95/50 57/90/50
