# Blender 3.5.0
# www.blender.org
mtllib rightheadlight.mtl
o Low_poly_Nissan_Skyline_GT-R_VIII_(R32)_Плоскость.001
v -0.242246 0.087667 1.623653
v -0.520603 0.132955 1.466932
v -0.227657 0.052874 1.624985
v -0.265949 0.132121 1.606213
v -0.499561 0.052472 1.507466
v -0.502791 0.085984 1.500954
vn -0.4112 -0.0026 0.9115
vn -0.4350 0.2835 0.8546
vt 0.870592 0.420223
vt 0.864878 0.383806
vt 0.875179 0.422054
vt 0.864809 0.417219
vt 0.875246 0.386378
vt 0.870883 0.386034
s 0
usemtl Material.004
f 1/1/1 5/5/1 3/3/1
f 4/4/2 6/6/2 1/1/2
f 1/1/1 6/6/1 5/5/1
f 4/4/2 2/2/2 6/6/2
