# Blender 3.5.0
# www.blender.org
mtllib rightdoor3.mtl
o rightdoor
v -0.610745 0.183223 0.534707
v -0.638446 -0.017242 0.544640
v -0.626537 0.119179 0.544743
v -0.607228 0.188881 0.533672
v -0.861037 -0.151419 -0.294816
v -0.593670 0.283945 0.439438
v -0.579990 0.433705 0.202742
v -0.562302 0.519957 0.060366
v -0.561253 0.538790 0.022944
v -0.603822 0.547608 -0.147676
v -0.651389 0.549331 -0.325196
v -0.798832 0.313262 -0.365794
v -0.807687 0.296046 -0.369254
v -0.645151 0.549331 -0.301919
v -0.792666 0.314138 -0.338162
v -0.615980 0.299665 0.328582
v -0.590364 0.355491 0.321718
v -0.621512 0.284158 0.330064
v -0.641060 -0.026729 0.543799
v -0.642617 -0.144091 0.520340
v -0.876051 -0.019608 -0.359787
v -0.870703 0.119179 -0.366495
v -0.879391 -0.033451 -0.358148
v -0.805448 0.205936 -0.182644
v -0.804535 0.211594 -0.182981
v -0.808320 0.205936 -0.193361
v -0.807407 0.211594 -0.193698
v -0.833148 0.227415 -0.314335
v -0.841375 0.182993 -0.312130
v -0.838863 0.192121 -0.302753
v -0.808821 0.182993 -0.183137
v -0.811752 0.192121 -0.194074
v -0.835485 0.215905 -0.303658
v -0.837416 0.217209 -0.313191
v -0.836304 0.211426 -0.303438
v -0.838767 0.212054 -0.312829
v -0.849026 0.217209 -0.368727
v -0.850376 0.212054 -0.368366
v -0.802705 0.232892 -0.200507
v -0.829857 0.233500 -0.309342
v -0.719865 0.444567 -0.342398
v -0.713481 0.445331 -0.317114
v -0.798741 0.205936 -0.195928
v -0.797828 0.211594 -0.196265
v -0.833782 0.192121 -0.304114
v -0.802173 0.192121 -0.196641
v -0.830404 0.215905 -0.305019
v -0.831223 0.211426 -0.304800
v -0.722351 0.354833 0.357961
v -0.722351 0.306255 0.357961
v -0.708470 0.342550 0.396089
v -0.708470 0.318538 0.396089
v -0.634207 0.354833 0.344031
v -0.634207 0.306255 0.344031
v -0.639487 0.342550 0.385187
v -0.639487 0.318538 0.385187
v -0.727133 0.330544 0.358716
v -0.712524 0.330544 0.396730
v -0.637000 0.330544 0.384794
v -0.623250 0.330544 0.342299
v -0.614233 0.291978 0.348996
v -0.611780 0.291978 0.358150
v -0.611150 0.300465 0.348171
v -0.608698 0.300465 0.357324
v -0.718010 0.354833 0.385431
v -0.718010 0.306255 0.385431
v -0.629866 0.354833 0.371500
v -0.629866 0.306255 0.371500
v -0.618910 0.330544 0.369769
v -0.722791 0.330544 0.386186
vn -0.9660 -0.0254 0.2572
vn -0.9372 0.2476 0.2456
vn -0.9513 0.1841 0.2474
vn -0.9370 0.2348 0.2585
vn -0.9479 0.1947 0.2521
vn -0.8985 0.3968 0.1878
vn -0.8774 0.4527 0.1590
vn -0.8845 0.3908 0.2548
vn -0.8159 0.5332 0.2236
vn -0.9644 0.0666 0.2558
vn -0.0098 -0.9993 -0.0367
vn -0.9429 0.1719 0.2852
vn -0.6607 -0.1888 0.7265
vn 0.1561 -0.0000 0.9877
vn 0.8985 -0.4154 -0.1420
vn -0.0000 1.0000 -0.0000
vn -0.0000 -1.0000 -0.0000
vn 0.8985 0.4154 -0.1420
vn -0.6607 0.1887 0.7266
vn 0.9041 -0.3519 -0.2423
vn -0.9687 0.1955 0.1531
vn 0.6601 0.2021 0.7235
vn 0.1116 -0.6993 0.7060
vn 0.1116 0.6993 0.7061
vn 0.6601 -0.2021 0.7235
vn -0.9687 -0.1955 0.1531
vn -0.8885 0.4199 0.1850
vn -0.9082 0.3373 0.2477
vn -0.8803 0.4119 0.2356
vn -0.8550 0.4834 0.1878
vn -0.8895 0.3791 0.2552
vn -0.9521 0.1688 0.2551
vn -0.9262 0.2838 0.2482
vn -0.9720 0.1098 0.2079
vn -0.9699 -0.0014 0.2435
vn -0.9339 0.1624 0.3187
vn -0.9433 0.2270 0.2422
vn -0.9448 0.2614 0.1975
vn -0.9057 0.3722 0.2030
vn -0.9168 0.3201 0.2386
vn -0.8326 0.5133 0.2083
vn 0.2588 -0.0000 0.9659
vn -0.2588 -0.0157 -0.9658
vn -0.2571 0.1134 -0.9597
vn -0.8398 0.4905 0.2328
vn -0.8220 0.5227 0.2258
vn -0.8557 0.4622 0.2326
vn -0.1561 -0.0000 -0.9877
vn -0.9371 0.2348 0.2584
vn -0.9479 0.1946 0.2521
vn -0.6607 -0.1887 0.7266
vn -0.6607 0.1888 0.7265
vn 0.1116 -0.6993 0.7061
vn 0.1116 0.6993 0.7060
vn -0.9082 0.3372 0.2477
vn -0.9720 0.1098 0.2080
vn -0.9338 0.1624 0.3187
vn -0.9168 0.3202 0.2386
vn -0.8221 0.5227 0.2259
vt 0.245367 0.287640
vt 0.271805 0.288414
vt 0.253854 0.288528
vt 0.244603 0.287613
vt 0.291270 0.174791
vt 0.232111 0.275899
vt 0.212528 0.245991
vt 0.201189 0.228323
vt 0.198735 0.223568
vt 0.197945 0.200485
vt 0.198121 0.176376
vt 0.230023 0.166846
vt 0.232338 0.166150
vt 0.198069 0.179537
vt 0.229854 0.170555
vt 0.230254 0.261057
vt 0.222779 0.260915
vt 0.232321 0.261095
vt 0.273066 0.288241
vt 0.288465 0.285464
vt 0.274131 0.165765
vt 0.255916 0.164793
vt 0.275965 0.165892
vt 0.244030 0.190101
vt 0.243283 0.190076
vt 0.244054 0.188646
vt 0.990999 0.036789
vt 0.967034 0.445238
vt 0.243307 0.188621
vt 0.991028 0.037541
vt 0.241465 0.172424
vt 0.247337 0.172527
vt 0.989899 0.869565
vt 0.968580 0.566302
vt 0.246120 0.173780
vt 0.247058 0.189976
vt 0.991028 0.034938
vt 0.245887 0.188471
vt 0.968834 0.580990
vt 0.967210 0.430346
vt 0.242982 0.173726
vt 0.989899 0.872716
vt 0.242829 0.172450
vt 0.243574 0.173737
vt 0.989875 0.872119
vt 0.243513 0.172462
vt 0.242933 0.165017
vt 0.243617 0.165029
vt 0.240490 0.187867
vt 0.240643 0.173154
vt 0.212298 0.172149
vt 0.212143 0.175568
vt 0.406475 0.942065
vt 0.989726 0.037058
vt 0.968335 0.445238
vt 0.407222 0.942077
vt 0.989755 0.037810
vt 0.404637 0.956960
vt 0.990582 0.869665
vt 0.967890 0.566302
vt 0.404645 0.942271
vt 0.967533 0.580990
vt 0.989755 0.035206
vt 0.967900 0.430346
vt 0.407775 0.956960
vt 0.990582 0.872816
vt 0.407183 0.956960
vt 0.990557 0.872219
vt 0.949834 0.651832
vt 0.109275 0.939996
vt 0.580970 0.182758
vt 0.966000 0.209557
vt 0.581000 0.176392
vt 0.115645 0.939977
vt 0.944574 0.650811
vt 0.068264 0.932394
vt 0.586277 0.181195
vt 0.586292 0.178049
vt 0.071411 0.932380
vt 0.949834 0.640126
vt 0.843269 0.102866
vt 0.109275 0.928354
vt 0.843269 0.096501
vt 0.966000 0.197851
vt 0.115645 0.928335
vt 0.068264 0.941506
vt 0.944574 0.641649
vt 0.071411 0.941491
vt 0.580922 0.179545
vt 0.112460 0.940618
vt 0.069837 0.931852
vt 0.586231 0.179597
vt 0.069837 0.941827
vt 0.843108 0.099616
vt 0.112460 0.926897
vt 0.804492 0.989255
vt 0.804492 0.990498
vt 0.805585 0.989258
vt 0.805585 0.990501
vt 0.584601 0.182758
vt 0.946187 0.651832
vt 0.969648 0.209557
vt 0.073089 0.931526
vt 0.584630 0.176392
vt 0.839644 0.102885
vt 0.066722 0.943196
vt 0.946187 0.640126
vt 0.969648 0.197851
vt 0.839644 0.096520
vt 0.073089 0.943168
vt 0.839482 0.099635
vt 0.069905 0.944629
vt 0.584552 0.179545
s 0
usemtl Material.001
f 5/5/1 19/19/1 23/23/1
f 19/19/2 21/21/2 23/23/2
f 38/48/3 29/32/3 36/46/3
f 1/1/4 31/36/4 3/3/4
f 22/22/5 31/36/5 29/32/5
f 34/43/6 28/31/6 37/47/6
f 13/13/7 28/31/7 40/50/7
f 18/18/8 39/49/8 25/25/8
f 13/13/9 39/49/9 18/18/9
f 3/3/10 21/21/10 2/2/10
f 47/64/11 27/28/11 33/40/11
f 48/67/12 45/58/12 46/61/12
f 70/113/13 52/78/13 58/92/13
f 52/79/14 59/93/14 58/91/14
f 69/111/15 54/83/15 60/94/15
f 65/101/16 53/80/16 49/69/16
f 66/102/17 54/84/17 68/108/17
f 69/111/18 53/81/18 67/105/18
f 51/76/14 59/93/14 55/86/14
f 70/113/19 51/77/19 65/100/19
f 62/97/20 63/98/20 64/99/20
f 49/71/21 70/113/21 65/100/21
f 55/86/22 69/112/22 67/106/22
f 56/88/23 66/103/23 68/110/23
f 55/87/24 65/101/24 51/75/24
f 56/88/25 69/112/25 59/93/25
f 50/73/26 70/113/26 57/89/26
f 15/15/27 12/12/27 13/13/27
f 15/15/28 18/18/28 16/16/28
f 16/16/29 6/6/29 17/17/29
f 41/51/30 15/15/30 42/52/30
f 4/4/31 24/24/31 1/1/31
f 25/25/32 26/26/32 24/24/32
f 25/25/33 39/49/33 27/29/33
f 36/46/34 30/35/34 35/44/34
f 29/32/35 32/38/35 30/35/35
f 24/24/36 32/38/36 31/36/36
f 36/46/37 33/41/37 34/43/37
f 34/43/38 38/48/38 36/46/38
f 28/31/39 33/41/39 40/50/39
f 39/49/40 33/41/40 27/29/40
f 11/11/41 42/52/41 14/14/41
f 45/59/42 35/45/42 30/33/42
f 48/68/42 33/42/42 35/45/42
f 32/39/16 45/60/16 30/34/16
f 27/30/43 43/54/43 26/27/43
f 26/27/44 46/63/44 32/37/44
f 8/8/45 10/10/45 14/14/45
f 8/8/46 42/52/46 7/7/46
f 7/7/47 42/52/47 15/15/47
f 54/85/48 57/90/48 60/95/48
f 53/82/48 57/90/48 49/70/48
f 5/5/1 20/20/1 19/19/1
f 19/19/2 2/2/2 21/21/2
f 38/48/3 22/22/3 29/32/3
f 1/1/49 24/24/4 31/36/4
f 22/22/50 3/3/50 31/36/50
f 13/13/7 37/47/7 28/31/7
f 25/25/8 4/4/8 18/18/8
f 18/18/8 4/4/8 6/6/8
f 13/13/9 40/50/9 39/49/9
f 3/3/10 22/22/10 21/21/10
f 47/64/11 44/55/11 27/28/11
f 46/61/12 43/53/12 48/67/12
f 43/53/12 44/56/12 48/67/12
f 44/56/12 47/65/12 48/67/12
f 70/113/51 66/104/51 52/78/51
f 52/79/14 56/88/14 59/93/14
f 69/111/15 68/109/15 54/83/15
f 65/101/16 67/107/16 53/80/16
f 66/102/17 50/72/17 54/84/17
f 69/111/18 60/94/18 53/81/18
f 51/76/14 58/91/14 59/93/14
f 70/113/52 58/92/52 51/77/52
f 62/97/20 61/96/20 63/98/20
f 49/71/21 57/89/21 70/113/21
f 55/86/22 59/93/22 69/112/22
f 56/88/53 52/79/53 66/103/53
f 55/87/54 67/107/54 65/101/54
f 56/88/25 68/110/25 69/112/25
f 50/73/26 66/104/26 70/113/26
f 15/15/55 13/13/55 18/18/55
f 16/16/29 18/18/29 6/6/29
f 41/51/30 12/12/30 15/15/30
f 4/4/31 25/25/31 24/24/31
f 25/25/32 27/29/32 26/26/32
f 36/46/56 29/32/56 30/35/56
f 29/32/35 31/36/35 32/38/35
f 24/24/57 26/26/57 32/38/57
f 36/46/37 35/44/37 33/41/37
f 34/43/38 37/47/38 38/48/38
f 28/31/39 34/43/39 33/41/39
f 39/49/58 40/50/58 33/41/58
f 11/11/41 41/51/41 42/52/41
f 45/59/42 48/68/42 35/45/42
f 48/68/42 47/66/42 33/42/42
f 32/39/16 46/62/16 45/60/16
f 27/30/43 44/57/43 43/54/43
f 26/27/44 43/54/44 46/63/44
f 8/8/45 9/9/45 10/10/45
f 8/8/59 14/14/59 42/52/59
f 15/15/47 16/16/47 7/7/47
f 16/16/47 17/17/47 7/7/47
f 54/85/48 50/74/48 57/90/48
f 53/82/48 60/95/48 57/90/48
